<?xml version="1.0" encoding="utf-8" ?>
<svg baseProfile="full" height="200mm" version="1.1" viewBox="0,0,200,200" width="200mm" xmlns="http://www.w3.org/2000/svg" xmlns:ev="http://www.w3.org/2001/xml-events" xmlns:xlink="http://www.w3.org/1999/xlink"><defs /><rect fill="#1a1a1a" height="200" width="200" x="0" y="0" /><text alignment-baseline="middle" fill="#e1ed5e" style="dominant-baseline: central; font-size:9.0px; font-family:Arial;" text-anchor="middle" x="100.0" y="100.0">2018</text><line stroke="#e1ed5e" stroke-width="0.3" x1="100.0" x2="100.0" y1="15.0" y2="10.0" /><path d="M 100.0 14.0 a86.0,86.0 0 0,1 42.46469731375804,11.215312516191453" fill="none" id="id25" stroke="none" /><text fill="#e1ed5e" style="font-size:6.75px; font-family:Arial;" text-anchor="middle"><textPath startOffset="22.20632615414155" xlink:href="#id25">January</textPath></text><path d="M 100.0 79.0 l 0.0 -7.650378726965471 a28.65037872696547,28.65037872696547 0 0,0 0.4931691730268062,0.004244862771306333 l -0.1316886937542778 7.649245240802723" fill="#ff4606" stroke="none" /><path d="M 105.01212808612495 79.60689891045804 l 0.9330652354366564 -3.7964100961570346 a24.909391301952713,24.909391301952713 0 0,0 0.4155018267305041,0.1059206671676972 l -0.9982759508521856 3.7797864328204698" fill="#ff0f01" stroke="none" /><path d="M 105.36241919743992 79.69619591428918 l 2.441045807742223 -9.242566464834656 a30.559484269163377,30.559484269163377 0 0,0 0.5074360318520035,0.13870143601230597 l -2.5997797288179374 9.199178487996056" fill="#ff6109" stroke="none" /><path d="M 107.76421540070413 80.48803036053334 l 4.357963720298515 -10.951841417569407 a32.787055536605685,32.787055536605685 0 0,0 0.5225883979430138,0.2131769289341862 l -4.545835987829916 10.875203602451641" fill="#ff800b" stroke="none" /><line stroke="#e1ed5e" stroke-width="0.3" x1="143.23703022742887" x2="145.7803849466894" y1="26.81831364943548" y2="22.513508569990506" /><path d="M 143.74570117128098 25.957352633546492 a86.0,86.0 0 0,1 28.547481713284135,27.462654790039103" fill="none" id="id26" stroke="none" /><text fill="#e1ed5e" style="font-size:6.75px; font-family:Arial;" text-anchor="middle"><textPath startOffset="19.985693538727396" xlink:href="#id26">February</textPath></text><path d="M 111.2981086023043 82.29822771554956 l 4.7558717868234925 -7.4514560222249555 a29.83982541138999,29.83982541138999 0 0,0 0.4305929068805393,0.2800696043560391 l -4.883431719488312 7.368487493709388" fill="#ff5708" stroke="none" /><line stroke="#e1ed5e" stroke-width="0.3" x1="172.23445277983987" x2="176.4835382374775" y1="55.19839476539836" y2="52.563006222186495" /><path d="M 173.08426987136738 54.67131705675599 a86.0,86.0 0 0,1 12.851231095245387,41.99856678651699" fill="none" id="id27" stroke="none" /><text fill="#e1ed5e" style="font-size:6.75px; font-family:Arial;" text-anchor="middle"><textPath startOffset="22.20632615414155" xlink:href="#id27">March</textPath></text><path d="M 118.21658344932153 89.55222093294921 l 4.314673588715556 -2.4745999449758647 a25.973937380469735,25.973937380469735 0 0,0 0.21909926345233585,0.3897531419289084 l -4.356630493460325 2.3999632931121626" fill="#ff1f03" stroke="none" /><path d="M 118.56541770881063 90.18545643968196 l 11.184948805436443 -5.912884320334307 a33.65169082636346,33.65169082636346 0 0,0 0.26631397969304077,0.5144338427297138 l -11.2850722182896 5.719477755344248" fill="#ff8c0c" stroke="none" /><path d="M 119.04729006885535 91.15688171328212 l 13.410797421531306 -6.22625410171744 a35.785659526057806,35.785659526057806 0 0,0 0.2545854580538841,0.5609453102404576 l -13.515985196548536 5.994486782634919" fill="#ffa90f" stroke="none" /><path d="M 119.34039704204932 91.81776055985345 l 11.345808840842071 -4.800011311870389 a33.319394743534026,33.319394743534026 0 0,0 0.21892161336598698,0.5301360514723458 l -11.426752141094257 4.60400068994474" fill="#ff880c" stroke="none" /><path d="M 119.61058180528143 92.48833698450437 l 3.772763377168726 -1.445124239958164 a25.040065292667958,25.040065292667958 0 0,0 0.1507118741244256,0.40383289342387874 l -3.7970798397947765 1.379968209504952" fill="#ff1101" stroke="none" /><path d="M 119.97218684219823 93.5106431181261 l 9.00938066001893 -2.9273252272999724 a30.473023427792732,30.473023427792732 0 0,0 0.15779877098930667,0.5002652264388274 l -9.058434914776443 2.7718098344347255" fill="#ff6008" stroke="none" /><path d="M 120.18372546131832 94.20196356495316 l 28.498443049446436 -8.186546703653267 a50.650983173811255,50.650983173811255 0 0,0 0.23350882166883197,0.8400554719121581 l -28.635138641681632 7.694779928322157" fill="#9cff22" stroke="none" /><path d="M 120.67395015179393 96.31383870115 l 29.2258958926597 -5.210971564347754 a50.68681888267963,50.68681888267963 0 0,0 0.14575631608507772,0.8602620283261031 l -29.311264070265 4.707123747705813" fill="#9cff22" stroke="none" /><path d="M 120.78858239683441 97.02765380044208 l 4.77329577669893 -0.6824846105618708 a25.821839671277512,25.821839671277512 0 0,0 0.059124636337243366,0.4405472156364633 l -4.784336412094009 0.6002190528607432" fill="#ff1c02" stroke="none" /><path d="M 120.94382443527127 98.46500227214037 l 15.400295284591845 -1.1287059029393418 a36.441601985155295,36.441601985155295 0 0,0 0.040466505768863806,0.6259989333449223 l -15.417442381365124 0.8634479053413843" fill="#ffb210" stroke="none" /><path d="M 120.96714384426684 98.82574320788733 l 29.425270740239306 -1.6479509218385089 a50.47138103953006,50.47138103953006 0 0,0 0.04111348652660377,0.8678407203225152 l -29.449277834999407 1.141199094892994" fill="#9eff22" stroke="none" /><path d="M 120.98425023603335 99.18683210126433 l 29.343868448743915 -1.1371143395091106 a50.36589253808414,50.36589253808414 0 0,0 0.0261142489032765,0.866604786933061 l -29.359094392102836 0.6318394051510504" fill="#a0ff22" stroke="none" /><line stroke="#e1ed5e" stroke-width="0.3" x1="184.98032266829074" x2="189.97916517819016" y1="98.17113171792111" y2="98.06355123074" /><path d="M 185.9800911702706 98.14961562048488 a86.0,86.0 0 0,1 -9.607161424134198,41.387399972396054" fill="none" id="id28" stroke="none" /><text fill="#e1ed5e" style="font-size:6.75px; font-family:Arial;" text-anchor="middle"><textPath startOffset="21.466115282336823" xlink:href="#id28">April</textPath></text><path d="M 120.92983693683757 101.71520430193887 l 29.337273982080475 2.404195440847368 a50.435621284719765,50.435621284719765 0 0,0 -0.0783563098300245,0.8646553496483319 l -29.291543075973376 -2.9088321790442704" fill="#9fff22" stroke="none" /><path d="M 120.89721153311464 102.0752229133903 l 9.400952715112677 0.933573000932954 a30.447193789684604,30.447193789684604 0 0,0 -0.056280475650810596,0.5210873064904373 l -9.383489937960814 -1.0952566293081827" fill="#ff5f08" stroke="none" /><path d="M 120.81339534386255 102.79330883721812 l 14.65803008286496 1.96721410852119 a35.78944817290148,35.78944817290148 0 0,0 -0.08720005139803177,0.6098769563807267 l -14.621995980450325 -2.219236536882326" fill="#ffa90f" stroke="none" /><path d="M 120.76222939487914 103.15116336523771 l 22.084549410729 3.3518569570392818 a43.33746332364942,43.33746332364942 0 0,0 -0.1182870175306472,0.7365733710771157 l -22.023580638837064 -3.7315095578096025" fill="#f3ff19" stroke="none" /><path d="M 120.49622156327973 104.57218783832717 l 60.842282451589924 13.572372011220203 a83.3377302757327,83.3377302757327 0 0,0 -0.3243799480652678,1.397420326453186 l -60.59964193759411 -14.617660995021955" fill="#4cd8ff" stroke="none" /><path d="M 120.13307415673323 105.97154293290107 l 25.341387188133858 7.516347498407309 a47.43258187040624,47.43258187040624 0 0,0 -0.23890939394285549,0.780769722610273 l -25.20825102168487 -7.951444193569639" fill="#c2ff1e" stroke="none" /><path d="M 119.9155931802556 106.66101706037122 l 13.323216936241792 4.456115090727837 a35.04866795222851,35.04866795222851 0 0,0 -0.1962878435432482,0.5705043536395685 l -13.244538261755313 -4.684792147456706" fill="#ff9f0e" stroke="none" /><path d="M 119.79798401119884 107.00284435728193 l 16.890760081493134 5.974515579969119 a38.91626670224173,38.91626670224173 0 0,0 -0.22881975190366596,0.6296136830658844 l -16.78541606858424 -6.264377060041134" fill="#ffd313" stroke="none" /><path d="M 119.41010516605496 108.01547362559984 l 27.190584602681596 11.228450947735487 a50.41778376630856,50.41778376630856 0 0,0 -0.33815692256870933,0.7993030750123371 l -26.993276698920578 -11.694828548413987" fill="#9fff22" stroke="none" /><path d="M 119.26925614724726 108.34839909993367 l 13.772683673069045 5.96701082290332 a36.00973130069516,36.00973130069516 0 0,0 -0.25131176945467676,0.5666416957507642 l -13.667930818883095 -6.203200855146772" fill="#ffac0f" stroke="none" /><path d="M 119.12269723197855 108.67885076344098 l 6.887808610439578 3.126037205524689 a28.563994716045894,28.563994716045894 0 0,0 -0.20705547810643424,0.44597907932118885 l -6.832978515493313 -3.2441363521247086" fill="#ff4406" stroke="none" /><path d="M 118.81262510543309 109.33194174019688 l 10.608366469357119 5.26224582140365 a32.84181870461884,32.84181870461884 0 0,0 -0.2555739856831905,0.5042717200632391 l -10.516213813887658 -5.444071753169584" fill="#ff810b" stroke="none" /><path d="M 118.64920377521936 109.65438752849418 l 8.681946796657675 4.4945017431831875 a30.776336026317384,30.776336026317384 0 0,0 -0.24759927512734206,0.4683645183178429 l -8.60329501330544 -4.643281276587165" fill="#ff6409" stroke="none" /><line stroke="#e1ed5e" stroke-width="0.3" x1="174.80103733775053" x2="179.2010983576182" y1="140.37084112569926" y2="142.7455964860345" /><path d="M 175.68104954172406 140.8457921977663 a86.0,86.0 0 0,1 -30.038265399797805,32.042727171017184" fill="none" id="id29" stroke="none" /><text fill="#e1ed5e" style="font-size:6.75px; font-family:Arial;" text-anchor="middle"><textPath startOffset="22.206326154141568" xlink:href="#id29">May</textPath></text><path d="M 117.14729908036423 112.12312394758627 l 19.15309308821224 13.541218380797186 a44.45646115854144,44.45646115854144 0 0,0 -0.44714775981681293,0.6210491297372919 l -18.917165536019823 -13.86890111598561" fill="#e5ff1a" stroke="none" /><path d="M 115.56566222782051 114.09645910891815 l 20.043055387941855 18.15124255933854 a48.040556128379606,48.040556128379606 0 0,0 -0.5603669897871293,0.6081676935893221 l -19.727641990159004 -18.4935615077292" fill="#baff1f" stroke="none" /><path d="M 113.48314897796784 116.09983520530334 l 13.807104781509922 16.48666138807057 a42.504561055099245,42.504561055099245 0 0,0 -0.5649663173130562,0.4649288164375894 l -13.521268335652174 -16.721885323365335" fill="#feff18" stroke="none" /><path d="M 112.92097659922987 116.55440617244103 l 5.563827141268331 7.1283972741887895 a30.04268876809195,30.04268876809195 0 0,0 -0.41039925363698915,0.31467664736690193 l -5.440299159137848 -7.223113263383063" fill="#ff5a08" stroke="none" /><path d="M 112.63410532772338 116.77436683061366 l 5.365637160921784 7.123984143125161 a29.918588016842325,29.918588016842325 0 0,0 -0.41403768293092474,0.30629517958926966 l -5.242214507572294 -7.2152892714542" fill="#ff5808" stroke="none" /><path d="M 112.34349029814194 116.9893568818739 l 13.781095201246604 18.96805027928787 a44.44579954583368,44.44579954583368 0 0,0 -0.6228182951545385,0.44436431674139876 l -13.45254957824318 -19.202458857873488" fill="#e6ff1a" stroke="none" /><path d="M 111.7513745106137 117.40417183066458 l 3.4580495560195965 5.121485032883641 a27.179620997596736,27.179620997596736 0 0,0 -0.389995594534973,0.2584678142480011 l -3.3693792627446593 -5.18025086822296" fill="#ff3004" stroke="none" /><line stroke="#e1ed5e" stroke-width="0.3" x1="143.8653032363475" x2="146.44561519142675" y1="172.8068346515853" y2="177.08958963109032" /><path d="M 144.38136562736335 173.6633856474863 a86.0,86.0 0 0,1 -40.68145358897372,12.25698825130547" fill="none" id="id30" stroke="none" /><text fill="#e1ed5e" style="font-size:6.75px; font-family:Arial;" text-anchor="middle"><textPath startOffset="21.466115282336833" xlink:href="#id30">June</textPath></text><path d="M 110.5260780823613 118.17145234162733 l 2.2346762165206053 3.857781792016016 a25.45827972961468,25.45827972961468 0 0,0 -0.381087696431877,0.21639153981195253 l -2.1679397531675293 -3.895676497622597" fill="#ff1702" stroke="none" /><path d="M 110.21172684928248 118.3499491758327 l 7.310766684593969 13.137072610603193 a36.03429367455717,36.03429367455717 0 0,0 -0.5445934667966806,0.29695577988647087 l -7.08355040592864 -13.260969042249435" fill="#ffad10" stroke="none" /><path d="M 109.2508944713604 118.85261126421891 l 6.019334414114368 12.266940470454331 a34.66419464493286,34.66419464493286 0 0,0 -0.5379343766075139,0.258241190989838 l -5.807287369506622 -12.36873593794373" fill="#ff9a0e" stroke="none" /><path d="M 108.92500713936063 119.00905698771935 l 1.261235780873923 2.6862614739936927 a23.9676112281799,23.9676112281799 0 0,0 -0.3749584454029164,0.17212503173408308 l -1.214809339703587 -2.7075735760618502" fill="#ff0100" stroke="none" /><path d="M 107.93186726928326 119.44442032107085 l 5.357314213118646 13.133082767954443 a35.18374698618193,35.18374698618193 0 0,0 -0.5627370989778103,0.22392470525341324 l -5.13045603809897 -13.223354317613925" fill="#ffa10e" stroke="none" /><path d="M 107.59598834532513 119.57807347666477 l 4.367772443737569 11.257596239661638 a33.0752188061135,33.0752188061135 0 0,0 -0.5325579253912744,0.20136783821274673 l -4.173344297586019 -11.331112327981014" fill="#ff840c" stroke="none" /><path d="M 107.2578585660854 119.70592522655815 l 5.659968917849947 15.367470069060843 a37.3766414284037,37.3766414284037 0 0,0 -0.6056447603543842,0.21716266325463013 l -5.394604596865829 -15.462620273355434" fill="#ffbe11" stroke="none" /><path d="M 106.91757812671514 119.82793768551818 l 2.96619031957998 8.502027117393338 a30.00459605517436,30.00459605517436 0 0,0 -0.4891181609846888,0.16593543643696718 l -2.819402425658064 -8.551825540728428" fill="#ff5908" stroke="none" /><path d="M 105.18746579009965 120.34920634021253 l 4.36998816716432 17.14243418966346 a38.69067117234671,38.69067117234671 0 0,0 -0.6467730012444213,0.15896106779693855 l -4.074261881176687 -17.21511651577443" fill="#ffd013" stroke="none" /><path d="M 103.41894727170886 120.7198165907248 l 0.6944050638055562 4.208297004396409 a25.265203637559477,25.265203637559477 0 0,0 -0.42970593514113725,0.06711122972014896 l -0.6218632650559018 -4.219626541463665" fill="#ff1402" stroke="none" /><path d="M 103.06178313531738 120.77559828337769 l 1.5753558002108456 10.689509286612791 a31.80496898125298,31.80496898125298 0 0,0 -0.5423071452560196,0.07515882881852269 l -1.3911200637679955 -10.715042680923917" fill="#ff730a" stroke="none" /><path d="M 101.98527174616119 120.90594882070398 l 0.286334243820306 3.0152492012729533 a24.028814131795038,24.028814131795038 0 0,0 -0.41210066416658697,0.03555777933345476 l -0.23438926191217732 -3.0197312328850714" fill="#ff0200" stroke="none" /><path d="M 101.62511606390274 120.93702456842531 l 0.23015723357209622 2.965208307846867 a23.97412720997096,23.97412720997096 0 0,0 -0.41171252617803106,0.028394106309007208 l -0.17908194661513482 -2.9687307586721596" fill="#ff0100" stroke="none" /><line stroke="#e1ed5e" stroke-width="0.3" x1="102.19456741930631" x2="102.32365962044197" y1="184.97166512339345" y2="189.96999836594603" /><path d="M 102.22038585953345 185.97133177190398 a86.0,86.0 0 0,1 -42.740103519485714,-10.115201625700543" fill="none" id="id31" stroke="none" /><text fill="#e1ed5e" style="font-size:6.75px; font-family:Arial;" text-anchor="middle"><textPath startOffset="22.20632615414155" xlink:href="#id31">July</textPath></text><path d="M 100.54218724476979 120.99299961872073 l 0.38290901071662686 14.825890489902395 a35.83083437063021,35.83083437063021 0 0,0 -0.6167003755392874,0.010617056237043497 l -0.12764894528467158 -14.830285023418599" fill="#ffaa0f" stroke="none" /><path d="M 100.18074693466247 120.99922214144158 l 0.03121652130608144 3.626742918841801 a24.626877261580766,24.626877261580766 0 0,0 -0.42392691193707127,0.0 l 0.03121652130607894 -3.626742918841801" fill="#ff0b01" stroke="none" /><path d="M 98.37488393609728 120.93702456842531 l -2.2720023941139664 29.271121615060718 a50.35916476132341,50.35916476132341 0 0,0 -0.863673302027645,-0.0745213666466719 l 2.775520013883153 -29.227675996135385" fill="#a0ff22" stroke="none" /><path d="M 98.01472825383883 120.90594882070398 l -0.2904606826102975 3.05870275785642 a24.072463176192826,24.072463176192826 0 0,0 -0.41217490845576793,-0.042723614542959545 l 0.3430681876716587 -3.0532497748577" fill="#ff0200" stroke="none" /><path d="M 96.58105272829116 120.7198165907248 l -1.444684665096924 8.755209985230232 a29.873602181022168,29.873602181022168 0 0,0 -0.5066435306002789,-0.08808647198794585 l 1.5951771671692527 -8.72904493472128" fill="#ff5708" stroke="none" /><path d="M 95.16358092515715 120.4354850818985 l -2.055944151378658 8.687050353691733 a29.92702359138609,29.92702359138609 0 0,0 -0.500275396627073,-0.12295552085100629 l 2.2051728327489415 -8.650373574526698" fill="#ff5808" stroke="none" /><path d="M 94.46302465271185 120.25689768951611 l -1.067782184193458 3.9064567030244497 a25.049760828183018,25.049760828183018 0 0,0 -0.41495385897899173,-0.11727010540952919 l 1.1348672112770637 -3.8874978042763995" fill="#ff1101" stroke="none" /><path d="M 93.42475214034765 119.94407469862007 l -5.029097482020901 15.254283639030767 a37.06191118216231,37.06191118216231 0 0,0 -0.6041625691831639,-0.20496474593063738 l 5.29092978414129 -15.165455906202007" fill="#ffba11" stroke="none" /><path d="M 92.7421414339146 119.70592522655815 l -5.480662790974758 14.880633201589077 a36.857834313316886,36.857834313316886 0 0,0 -0.5934633990293289,-0.2243970768684449 l 5.73599641076437 -14.784087874614" fill="#ffb811" stroke="none" /><path d="M 92.06813273071674 119.44442032107085 l -6.655279231136543 16.31495363335874 a38.620171784152475,38.620171784152475 0 0,0 -0.6133775966250316,-0.25639188513566014 l 6.935128287259037 -16.197976705203107" fill="#ffcf13" stroke="none" /><path d="M 91.07499286063937 119.00905698771935 l -1.2915399698179817 2.7508052940275984 a24.038915145127895,24.038915145127895 0 0,0 -0.373046567657824,-0.179085022478341 l 1.3386992054760478 -2.728165995049695" fill="#ff0200" stroke="none" /><path d="M 90.7491055286396 118.85261126421891 l -1.2895336292199995 2.6279703329322475 a23.927306791516962,23.927306791516962 0 0,0 -0.36819122330259296,-0.18461872288833395 l 1.334578760205353 -2.6053837691346113" fill="#ff0000" stroke="none" /><line stroke="#e1ed5e" stroke-width="0.3" x1="58.666819895761336" x2="56.23545636021788" y1="174.27360380694188" y2="178.64263932499728" /><path d="M 58.180547188652646 175.14741091055294 a86.0,86.0 0 0,1 -31.652253787137756,-30.449443065178592" fill="none" id="id32" stroke="none" /><text fill="#e1ed5e" style="font-size:6.75px; font-family:Arial;" text-anchor="middle"><textPath startOffset="22.20632615414155" xlink:href="#id32">August</textPath></text><path d="M 89.7882731507175 118.34994917583269 l -8.603490062838913 15.460030190581172 a38.69272660601099,38.69272660601099 0 0,0 -0.5791955390371508,-0.3288823431403206 l 8.868334368797273 -15.309644681646219" fill="#ffd013" stroke="none" /><path d="M 89.4739219176387 118.17145234162733 l -14.734794054568363 25.437072177429496 a50.3965779775521,50.3965779775521 0 0,0 -0.7469063931827473,-0.4412854623819839 l 15.170468318779493 -25.179668142753762" fill="#9fff22" stroke="none" /><path d="M 89.1626897886671 117.98757091392108 l -15.09949530674842 25.061868424743615 a50.2590500094873,50.2590500094873 0 0,0 -0.7371825140268754,-0.45283770990687183 l 15.528657020707604 -24.798242248008364" fill="#a1ff22" stroke="none" /><path d="M 88.8546689885994 117.79835938074946 l -15.55639958548035 24.84254529629504 a50.311322468657124,50.311322468657124 0 0,0 -0.7300369294897775,-0.4659441089022169 l 15.98171831701705 -24.571086758569017" fill="#a0ff22" stroke="none" /><path d="M 88.54995079064634 117.60387380957326 l -19.166938388469806 29.468202148061685 a56.15318570238585,56.15318570238585 0 0,0 -0.8057321713562993,-0.5339953479425305 l 19.671345258566067 -29.133908779027838" fill="#60ff29" stroke="none" /><path d="M 87.65650970185807 116.9893568818739 l -5.8587966219815915 8.06394174621305 a30.967580164917685,30.967580164917685 0 0,0 -0.42855448693776355,-0.31703436414576364 l 5.996736079337919 -7.961897433327519" fill="#ff6709" stroke="none" /><path d="M 85.70375840098266 115.38237550388516 l -4.0329762232936766 4.339375089268782 a26.924109501268404,26.924109501268404 0 0,0 -0.3367618455676639,-0.318429344598803 l 4.107073903252157 -4.269311107924048" fill="#ff2d04" stroke="none" /><path d="M 84.67929136418377 114.36230785411682 l -21.4192004332933 20.07930298294596 a50.35916476132341,50.35916476132341 0 0,0 -0.5874122999343371,-0.6375200362404856 l 21.761659141223365 -19.70763169190413" fill="#a0ff22" stroke="none" /><path d="M 82.44556493220864 111.52570212397912 l -12.42115628743923 8.155349166837476 a35.859166987083356,35.859166987083356 0 0,0 -0.33433573806768185,-0.5188964901040243 l 12.559696888883957 -7.940331076812004" fill="#ffaa0f" stroke="none" /><line stroke="#e1ed5e" stroke-width="0.3" x1="26.63291911575756" x2="22.317208475507996" y1="142.92168965132927" y2="145.44649492493687" /><path d="M 25.769776987707644 143.4266507060508 a86.0,86.0 0 0,1 -11.730757126820373,-40.83630448921669" fill="none" id="id33" stroke="none" /><text fill="#e1ed5e" style="font-size:6.75px; font-family:Arial;" text-anchor="middle"><textPath startOffset="21.46611528233685" xlink:href="#id33">September</textPath></text><path d="M 81.69416730710424 110.29060199501025 l -12.149303288671181 6.829716340022281 a34.93738123484049,34.93738123484049 0 0,0 -0.29018587996867073,-0.5267716623297708 l 12.265065578091368 -6.619574159294688" fill="#ff9e0e" stroke="none" /><path d="M 81.02952815118164 109.00673069616217 l -10.74632559127041 5.1021008515334865 a32.8960054981835,32.8960054981835 0 0,0 -0.23845747816191196,-0.5136161937876066 l 10.832557686272146 -4.916364590467053" fill="#ff820b" stroke="none" /><path d="M 80.58989483394504 108.01547362559985 l -16.28699672675199 6.725774620315729 a38.62107563744374,38.62107563744374 0 0,0 -0.24845744538982567,-0.6166510036107483 l 16.400356786399204 -6.444424248862175" fill="#ffcf13" stroke="none" /><path d="M 80.45479744820244 107.68017299344265 l -9.386043765628926 3.688190984617056 a31.0846700644747,31.0846700644747 0 0,0 -0.19140122172785634,-0.4996881926920706 l 9.44813926695029 -3.526079225091827" fill="#ff6809" stroke="none" /><path d="M 80.20201598880116 107.00284435728193 l -14.583704669490576 5.158475423317813 a36.46914058957042,36.46914058957042 0 0,0 -0.204243110521617,-0.5936260832566316 l 14.670338610955422 -4.906676636971884" fill="#ffb210" stroke="none" /><path d="M 79.97269907076064 106.31721596034903 l -20.556877313861587 6.48426035644512 a42.55529719737872,42.55529719737872 0 0,0 -0.21434338721559867,-0.7004865912459647 l 20.665447473583317 -6.129446792647109" fill="#fdff18" stroke="none" /><path d="M 79.86692584326677 105.97154293290107 l -9.428148414894078 2.7964230697712043 a30.83412245797348,30.83412245797348 0 0,0 -0.14654630745053773,-0.5101469213047019 l 9.47488735923072 -2.633718672961906" fill="#ff6509" stroke="none" /><path d="M 79.76711848015287 105.62410040840567 l -16.303172592744332 4.531765757003966 a37.92129833863713,37.92129833863713 0 0,0 -0.16940333070309546,-0.630412813132076 l 16.3787639997892 -4.250462010696352" fill="#ffc612" stroke="none" /><path d="M 79.67330655649465 105.27499134158121 l -15.713429015800708 4.07780056482249 a37.233924629647454,37.233924629647454 0 0,0 -0.15565320508921904,-0.6217571808377685 l 15.781293535184984 -3.8067155445873295" fill="#ffbd11" stroke="none" /><path d="M 79.4281124754447 104.21870165774334 l -18.6601305958623 3.826655370563682 a40.04845834128579,40.04845834128579 0 0,0 -0.13267494909640393,-0.6765067070791426 l 18.72323547793437 -3.5048849364165844" fill="#ffe115" stroke="none" /><path d="M 79.1416061653843 102.43462659150553 l -11.861215112465189 1.384460852994872 a32.94174006573782,32.94174006573782 0 0,0 -0.06089154923345381,-0.5637801211019815 l 11.883288963199695 -1.1800844100081085" fill="#ff820c" stroke="none" /><path d="M 79.10278846688536 102.07522291339032 l -29.273601003937994 2.907050419839599 a50.41759095985341,50.41759095985341 0 0,0 -0.07832829808583307,-0.8643462423853708 l 29.319303898300905 -2.402722788905662" fill="#9fff22" stroke="none" /><path d="M 79.07016306316243 101.71520430193888 l -14.807850985510438 1.2135063349736266 a35.85749132370952,35.85749132370952 0 0,0 -0.045118015163625846,-0.6155994704776957 l 14.826545559338399 -0.9584337279991701" fill="#ffaa0f" stroke="none" /><path d="M 79.0095281055655 100.63252640178507 l -3.6550569827141355 0.11014140383421198 a24.65671610543202,24.65671610543202 0 0,0 -0.00913230439341035,-0.42434230046069926 l 3.6564113497925534 -0.0472092875833839" fill="#ff0b01" stroke="none" /><line stroke="#e1ed5e" stroke-width="0.3" x1="15.007084014347285" x2="10.007500721073583" y1="101.09737516637583" y2="101.16192664675087" /><path d="M 14.007167355692545 101.11028546245083 a86.0,86.0 0 0,1 10.666146001902534,-42.60595125391555" fill="none" id="id34" stroke="none" /><text fill="#e1ed5e" style="font-size:6.75px; font-family:Arial;" text-anchor="middle"><textPath startOffset="22.20632615414155" xlink:href="#id34">October</textPath></text><path d="M 79.03285615573316 98.82574320788736 l -14.710024888440069 -0.8238292619011118 a35.733075947380804,35.733075947380804 0 0,0 0.03967972441368281,-0.6138277740179213 l 14.693664573021973 1.0769161001720449" fill="#ffa80f" stroke="none" /><path d="M 79.05617556472873 98.46500227214037 l -10.044956955961052 -0.736206806521978 a31.07189955813101,31.07189955813101 0 0,0 0.04368637491250279,-0.5330844274624944 l 10.03079609722905 0.9090051511922508" fill="#ff6809" stroke="none" /><path d="M 79.08570108090925 98.10471618934814 l -13.467074322416149 -1.2204056200431441 a34.52225871231997,34.52225871231997 0 0,0 0.058725443292656776,-0.5913571997225551 l 13.444071753441264 1.4520383504701295" fill="#ff980e" stroke="none" /><path d="M 79.16333360222342 97.38593545837743 l -14.627518619372076 -1.8350957405981483 a35.742180209766744,35.742180209766744 0 0,0 0.08183938223245218,-0.6097984563704262 l 14.59376323808179 2.0866125390332337" fill="#ffa90f" stroke="none" /><path d="M 79.21141760316559 97.0276538004421 l -14.581092090687243 -2.0848008216162754 a35.72938019819279,35.72938019819279 0 0,0 0.09229087175325976,-0.6080815331673578 l 14.54304532549468 2.3354814671757254" fill="#ffa80f" stroke="none" /><path d="M 79.3925641242962 95.95851677861259 l -3.5864545385059015 -0.7033672665083714 a24.654775187116854,24.654775187116854 0 0,0 0.08525938729266416,-0.41575505169412297 l 3.573815855298243 0.7649979743658969" fill="#ff0b01" stroke="none" /><path d="M 79.62865764111835 94.90015583598534 l -14.58730997117774 -3.651846123569227 a36.03747293615018,36.03747293615018 0 0,0 0.15582546346318865,-0.6004590759307157 l 14.522288175844245 3.9024016250488067" fill="#ffad10" stroke="none" /><path d="M 80.02781315780177 93.51064311812611 l -15.131801909907656 -4.916620480023704 a36.91051809292436,36.91051809292436 0 0,0 0.20153618537241266,-0.6025675422536546 l 15.044928430763472 5.176361125199681" fill="#ffb811" stroke="none" /><path d="M 80.14247586403 93.16781622104843 l -15.57578689532341 -5.359008396110748 a37.47191878313252,37.47191878313252 0 0,0 0.21510116025960266,-0.608119945887658 l 15.481232654253999 5.626325968425017" fill="#ffc011" stroke="none" /><path d="M 80.2630227832202 92.82701384747504 l -6.603927127961764 -2.4000573806652192 a28.026530362982495,28.026530362982495 0 0,0 0.1686868970524191,-0.45199701825175354 l 6.561635642407718 2.513377535946314" fill="#ff3d05" stroke="none" /><path d="M 80.38941819471856 92.48833698450439 l -14.166368242092089 -5.426304300638145 a36.17006155339125,36.17006155339125 0 0,0 0.22771025897783725,-0.5794977715533322 l 14.070864433232561 5.66935107708724" fill="#ffae10" stroke="none" /><path d="M 80.95270993114464 91.15688171328213 l -14.232867393343957 -6.607917948617358 a36.692007323863095,36.692007323863095 0 0,0 0.2708950041458769,-0.5705739655705063 l 14.117014195356328 6.851934329828397" fill="#ffb510" stroke="none" /><path d="M 81.10775173730289 90.83032412892265 l -26.4156986803306 -12.821311229799418 a50.36281932004147,50.36281932004147 0 0,0 0.38525155443814635,-0.7766436253787943 l 26.19108711293904 13.274114443677174" fill="#a0ff22" stroke="none" /><line stroke="#e1ed5e" stroke-width="0.3" x1="26.266209847984243" x2="21.928928074336255" y1="57.711370442889674" y2="55.22380399835377" /><path d="M 25.398753493254645 57.213857153982495 a86.0,86.0 0 0,1 29.58750427330803,-30.492523968695096" fill="none" id="id35" stroke="none" /><text fill="#e1ed5e" style="font-size:6.75px; font-family:Arial;" text-anchor="middle"><textPath startOffset="21.46611528233685" xlink:href="#id35">November</textPath></text><path d="M 81.78341655067845 89.55222093294921 l -13.130396363642268 -7.5306920560480135 a36.1366651383115,36.1366651383115 0 0,0 0.31411421990020194,-0.5369230234298374 l 12.99882246927174 7.755594491831742" fill="#ffae10" stroke="none" /><path d="M 81.96595687620814 89.24020034530311 l -15.130559210542014 -9.027470138084594 a38.61899654116905,38.61899654116905 0 0,0 0.3455190160059474,-0.5679424142055964 l 14.97292439624985 9.286580325497265" fill="#ffcf13" stroke="none" /><path d="M 82.34701348167596 88.62581576622439 l -27.160076487112725 -17.499798883729387 a53.3096381248195,53.3096381248195 0 0,0 0.5036576938959942,-0.7671052217718062 l 26.85482215785881 17.96472216947886" fill="#7fff26" stroke="none" /><path d="M 82.7489923806493 88.02491185347247 l -12.571524011681895 -8.726742895134388 a36.30357009112818,36.30357009112818 0 0,0 0.3607665206706582,-0.5102786587737429 l 12.419444871207359 8.941848054239918" fill="#ffb010" stroke="none" /><path d="M 82.95767976084542 87.72973835380427 l -9.608615974061998 -6.918085706938063 a32.8399920095218,32.8399920095218 0 0,0 0.3342444808184926,-0.4559090962049252 l 9.488108880729872 7.082457246814489" fill="#ff810b" stroke="none" /><path d="M 83.39014120810768 87.1503855733568 l -11.639291501813839 -9.004315441297841 a35.71566523234986,35.71566523234986 0 0,0 0.3803648946708013,-0.48302478957209766 l 11.482572526549065 9.203332624822988" fill="#ffa80f" stroke="none" /><path d="M 83.6137871275137 86.86637796730984 l -12.350967570490292 -9.899355090229596 a36.82857009112818,36.82857009112818 0 0,0 0.40073256192824086,-0.4912507377725389 l 12.178736516485658 10.110489997610218" fill="#ffb711" stroke="none" /><path d="M 83.84228863543731 86.58626213691792 l -6.69360767376134 -5.556869823226931 a29.699608377537853,29.699608377537853 0 0,0 0.32993349609849865,-0.3905371929989148 l 6.596963564175717 5.671265965854961" fill="#ff5507" stroke="none" /><path d="M 84.5562425177563 85.77008943001954 l -12.979055252386019 -11.958928760480378 a38.6485651638521,38.6485651638521 0 0,0 0.4550089651170714,-0.4853718394042567 l 12.77127896529849 12.180570016762685" fill="#ffcf13" stroke="none" /><path d="M 85.31137513191541 84.99185889309783 l -8.679587224714254 -8.868391084124923 a33.409012644542244,33.409012644542244 0 0,0 0.4144575051555971,-0.3987077915854291 l 8.525646475946228 9.016481962472666" fill="#ff890c" stroke="none" /><path d="M 85.57189188830299 84.74124197986013 l -11.346265346222566 -11.999488499115861 a37.51440164060766,37.51440164060766 0 0,0 0.4730246570755344,-0.4396248666622507 l 11.138032805352175 12.19301795185276" fill="#ffc011" stroke="none" /><path d="M 86.10567301691215 84.25364557470407 l -10.20970812615636 -11.570598772359817 a36.43103677567511,36.43103677567511 0 0,0 0.47378771738877745,-0.4108640397378511 l 10.009026610120808 11.744627805517348" fill="#ffb210" stroke="none" /><path d="M 86.65592168130627 83.78471172551755 l -9.793821912759396 -11.90113260965054 a36.41284870007273,36.41284870007273 0 0,0 0.4874060961035948,-0.39411516622714876 l 9.5875124180913 12.067953873141823" fill="#ffb210" stroke="none" /><path d="M 87.51073957382395 83.11751280151077 l -37.467781278528136 -50.64746159546771 a84.0,84.0 0 0,0 1.1698187345848732,-0.8499230607333286 l 36.59041722758948 51.284903891017706" fill="#4dd2ff" stroke="none" /><line stroke="#e1ed5e" stroke-width="0.3" x1="56.762969772571076" x2="54.21961505331055" y1="26.818313649435495" y2="22.513508569990535" /><path d="M 56.25429882871897 25.957352633546506 a86.0,86.0 0 0,1 42.265352541879196,-11.944610805530505" fill="none" id="id36" stroke="none" /><text fill="#e1ed5e" style="font-size:6.75px; font-family:Arial;" text-anchor="middle"><textPath startOffset="22.20632615414155" xlink:href="#id36">December</textPath></text><path d="M 89.3179101791058 81.91981866633112 l -4.531079549165935 -7.6691678557090555 a29.907683059017693,29.907683059017693 0 0,0 0.445486713583444,-0.2580546586852439 l 4.398396103117172 7.746026671784346" fill="#ff5808" stroke="none" /><path d="M 89.63071344664047 81.73862282372117 l -7.271946296162979 -12.806643295709845 a35.72723040621788,35.72723040621788 0 0,0 0.5373986404522373,-0.2990617615825093 l 7.050423566638696 12.929920454852539" fill="#ffa80f" stroke="none" /><path d="M 89.94658935756843 81.56283822128135 l -7.103929643114512 -13.028046376812343 a35.838996218433856,35.838996218433856 0 0,0 0.544163879604808,-0.29067349889631616 l 6.878620716981398 13.148398602210408" fill="#ffaa0f" stroke="none" /><path d="M 90.58718382345135 81.22770947309562 l -6.8661903166344205 -13.693470372661638 a36.318475782897146,36.318475782897146 0 0,0 0.5612566157112446,-0.27540618381878684 l 6.62946243391275 13.809631716615254" fill="#ffb010" stroke="none" /><path d="M 91.56875222667455 80.76684994638697 l -7.107928910910302 -16.214428396525676 a38.70396400890526,38.70396400890526 0 0,0 0.6124740894313596,-0.2622294413761131 l 6.827771063688634 16.334377365864576" fill="#ffd013" stroke="none" /><path d="M 91.90106846888425 80.62456947434976 l -6.798510810227315 -16.26437677307964 a38.628094084542155,38.628094084542155 0 0,0 0.6156879131978057,-0.2511545587962285 l 6.517539027441129 16.378992218059444" fill="#ffcf13" stroke="none" /><path d="M 93.25333710446033 80.11325718540243 l -4.743368710934749 -13.981749953970848 a35.764446434026524,35.764446434026524 0 0,0 0.5846928006567864,-0.19276402360940884 l 4.501993088035553 14.06132770183949" fill="#ffa90f" stroke="none" /><path d="M 93.94186890950719 79.89281104454417 l -4.275294769977926 -14.189881086449931 a35.8199484013201,35.8199484013201 0 0,0 0.59189869028097,-0.17279145862379564 l 4.030405861973534 14.261370873992426" fill="#ffaa0f" stroke="none" /><path d="M 94.28887869178378 79.79150937346287 l -4.080763600596047 -14.4395589799713 a36.00511563101129,36.00511563101129 0 0,0 0.5978599913941705,-0.16341771994004228 l 3.8316057199781537 14.507663240737639" fill="#ffac0f" stroke="none" /><path d="M 95.33964822691252 79.52364482259891 l -3.2745390104107783 -14.387459806495581 a35.755392418171326,35.755392418171326 0 0,0 0.6012989039630112,-0.13142065071276954 l 3.0263973822942463 14.441693955304219" fill="#ffa90f" stroke="none" /><path d="M 95.692805502759 79.44645832069477 l -3.0370652525851956 -14.492600065254651 a35.807404296495704,35.807404296495704 0 0,0 0.6043498510699457,-0.12122689469641593 l 2.787148992048113 14.542730916028276" fill="#ffa90f" stroke="none" /><path d="M 96.40284397218896 79.31037775812273 l -5.038194479951548 -28.97798698899938 a50.41270360834637,50.41270360834637 0 0,0 0.8562256674606649,-0.14128457155562546 l 4.538639606351997 29.06041782349463" fill="#9fff22" stroke="none" /><path d="M 96.75951476605007 79.25152402106235 l -3.1767308684504316 -20.34026368182246 a41.586839137095126,41.586839137095126 0 0,0 0.7082258895880524,-0.10437408613501921 l 2.82613599843373 20.391932252118448" fill="#fff517" stroke="none" /><path d="M 97.11714578562143 79.19881850522333 l -2.028793700822205 -14.638723587123641 a35.77864107895939,35.77864107895939 0 0,0 0.6107674219433652,-0.07929514051063197 l 1.7765115503709823 14.67147705079841" fill="#ffa90f" stroke="none" /><path d="M 97.47563105711357 79.15227682838746 l -1.0604310746162608 -8.75766339483525 a29.82163149316775,29.82163149316775 0 0,0 0.5101391899051935,-0.057320081960613736 l 0.9095251812013495 8.774619430266462" fill="#ff5708" stroke="none" /><path d="M 98.19473922651362 79.07773832637324 l -0.7601759918962635 -8.810140481669526 a29.842875258953256,29.842875258953256 0 0,0 0.5121745248077536,-0.03975460051960218 l 0.6084112777261758 8.82192034437759" fill="#ff5708" stroke="none" /><path d="M 99.27714615592234 79.0124445844662 l -0.5102694688828276 -14.815316875983523 a35.824101627642605,35.824101627642605 0 0,0 0.616470292681039,-0.015921608895429557 l 0.25517254100690967 14.821905277021312" fill="#ffaa0f" stroke="none" /><path d="M 99.63851952072746 79.00311137660856 l -0.15451396282585733 -8.975069621303945 a29.976399571763785,29.976399571763785 0 0,0 0.5159944420983908,-0.004441327068399997 l 2.1985838006856385e-15 8.976399571763785" fill="#ff5908" stroke="none" /></svg>