<?xml version="1.0" encoding="utf-8" ?>
<svg baseProfile="full" height="200mm" version="1.1" viewBox="0,0,200,200" width="200mm" xmlns="http://www.w3.org/2000/svg" xmlns:ev="http://www.w3.org/2001/xml-events" xmlns:xlink="http://www.w3.org/1999/xlink"><defs /><rect fill="#1a1a1a" height="200" width="200" x="0" y="0" /><text alignment-baseline="middle" fill="#e1ed5e" style="dominant-baseline: central; font-size:9.0px; font-family:Arial;" text-anchor="middle" x="100.0" y="100.0">2017</text><line stroke="#e1ed5e" stroke-width="0.3" x1="100.0" x2="100.0" y1="15.0" y2="10.0" /><path d="M 100.0 14.0 a86.0,86.0 0 0,1 42.46469731375804,11.215312516191453" fill="none" id="id13" stroke="none" /><text fill="#e1ed5e" style="font-size:6.75px; font-family:Arial;" text-anchor="middle"><textPath startOffset="22.20632615414155" xlink:href="#id13">January</textPath></text><line stroke="#e1ed5e" stroke-width="0.3" x1="143.23703022742887" x2="145.7803849466894" y1="26.81831364943548" y2="22.513508569990506" /><path d="M 143.74570117128098 25.957352633546492 a86.0,86.0 0 0,1 28.547481713284135,27.462654790039103" fill="none" id="id14" stroke="none" /><text fill="#e1ed5e" style="font-size:6.75px; font-family:Arial;" text-anchor="middle"><textPath startOffset="19.985693538727396" xlink:href="#id14">February</textPath></text><line stroke="#e1ed5e" stroke-width="0.3" x1="172.23445277983987" x2="176.4835382374775" y1="55.19839476539836" y2="52.563006222186495" /><path d="M 173.08426987136738 54.67131705675599 a86.0,86.0 0 0,1 12.851231095245387,41.99856678651699" fill="none" id="id15" stroke="none" /><text fill="#e1ed5e" style="font-size:6.75px; font-family:Arial;" text-anchor="middle"><textPath startOffset="22.20632615414155" xlink:href="#id15">March</textPath></text><line stroke="#e1ed5e" stroke-width="0.3" x1="184.98032266829074" x2="189.97916517819016" y1="98.17113171792111" y2="98.06355123074" /><path d="M 185.9800911702706 98.14961562048488 a86.0,86.0 0 0,1 -9.607161424134198,41.387399972396054" fill="none" id="id16" stroke="none" /><text fill="#e1ed5e" style="font-size:6.75px; font-family:Arial;" text-anchor="middle"><textPath startOffset="21.466115282336823" xlink:href="#id16">April</textPath></text><line stroke="#e1ed5e" stroke-width="0.3" x1="174.80103733775053" x2="179.2010983576182" y1="140.37084112569926" y2="142.7455964860345" /><path d="M 175.68104954172406 140.8457921977663 a86.0,86.0 0 0,1 -30.038265399797805,32.042727171017184" fill="none" id="id17" stroke="none" /><text fill="#e1ed5e" style="font-size:6.75px; font-family:Arial;" text-anchor="middle"><textPath startOffset="22.206326154141568" xlink:href="#id17">May</textPath></text><line stroke="#e1ed5e" stroke-width="0.3" x1="143.8653032363475" x2="146.44561519142675" y1="172.8068346515853" y2="177.08958963109032" /><path d="M 144.38136562736335 173.6633856474863 a86.0,86.0 0 0,1 -40.68145358897372,12.25698825130547" fill="none" id="id18" stroke="none" /><text fill="#e1ed5e" style="font-size:6.75px; font-family:Arial;" text-anchor="middle"><textPath startOffset="21.466115282336833" xlink:href="#id18">June</textPath></text><line stroke="#e1ed5e" stroke-width="0.3" x1="102.19456741930631" x2="102.32365962044197" y1="184.97166512339345" y2="189.96999836594603" /><path d="M 102.22038585953345 185.97133177190398 a86.0,86.0 0 0,1 -42.740103519485714,-10.115201625700543" fill="none" id="id19" stroke="none" /><text fill="#e1ed5e" style="font-size:6.75px; font-family:Arial;" text-anchor="middle"><textPath startOffset="22.20632615414155" xlink:href="#id19">July</textPath></text><line stroke="#e1ed5e" stroke-width="0.3" x1="58.666819895761336" x2="56.23545636021788" y1="174.27360380694188" y2="178.64263932499728" /><path d="M 58.180547188652646 175.14741091055294 a86.0,86.0 0 0,1 -31.652253787137756,-30.449443065178592" fill="none" id="id20" stroke="none" /><text fill="#e1ed5e" style="font-size:6.75px; font-family:Arial;" text-anchor="middle"><textPath startOffset="22.20632615414155" xlink:href="#id20">August</textPath></text><path d="M 88.24862548938628 117.40417183066458 l -2.407167245630587 3.5650937964970333 a25.301668039988485,25.301668039988485 0 0,0 -0.35885369682226764,-0.2468228448770614 l 2.4681778270757446 -3.5231301622548705" fill="#ff1202" stroke="none" /><path d="M 86.79598089348748 116.32954008644616 l -6.667916447886972 8.24627774698841 a31.604819962473567,31.604819962473567 0 0,0 -0.42008806349969047,-0.34570387681048537 l 6.808874639931351 -8.130278751320743" fill="#ff6e0a" stroke="none" /><path d="M 86.24171649860922 115.8653595955263 l -4.108306268234322 4.737491872987166 a27.270726404511112,27.270726404511112 0 0,0 -0.35199709208261776,-0.3105965077627835 l 4.189245713223527 -4.666072223452093" fill="#ff2f04" stroke="none" /><path d="M 83.06392112726016 112.41649034213515 l -3.970222496846775 2.9107227037996637 a25.922902937585004,25.922902937585004 0 0,0 -0.2607352828906514,-0.3621385033828291 l 4.0197375721130335 -2.8419505949656965" fill="#ff1c02" stroke="none" /><line stroke="#e1ed5e" stroke-width="0.3" x1="26.63291911575756" x2="22.317208475507996" y1="142.92168965132927" y2="145.44649492493687" /><path d="M 25.769776987707644 143.4266507060508 a86.0,86.0 0 0,1 -11.730757126820373,-40.83630448921669" fill="none" id="id21" stroke="none" /><text fill="#e1ed5e" style="font-size:6.75px; font-family:Arial;" text-anchor="middle"><textPath startOffset="21.46611528233685" xlink:href="#id21">September</textPath></text><path d="M 79.18660465613746 102.79330883721812 l -15.017056181103392 2.015398018759422 a36.151693156886296,36.151693156886296 0 0,0 -0.07746531572528248,-0.6174747851344999 l 15.049523006075523 -1.7566054793375134" fill="#ffac10" stroke="none" /><line stroke="#e1ed5e" stroke-width="0.3" x1="15.007084014347285" x2="10.007500721073583" y1="101.09737516637583" y2="101.16192664675087" /><path d="M 14.007167355692545 101.11028546245083 a86.0,86.0 0 0,1 10.666146001902534,-42.60595125391555" fill="none" id="id22" stroke="none" /><text fill="#e1ed5e" style="font-size:6.75px; font-family:Arial;" text-anchor="middle"><textPath startOffset="22.20632615414155" xlink:href="#id22">October</textPath></text><path d="M 79.00019446554 99.90962569577889 l -15.060977090362973 -0.06481609190133802 a36.06111656027559,36.06111656027559 0 0,0 0.008014141634001716,-0.6207041014473665 l 15.057629941611257 0.32405645140917655" fill="#ffab0f" stroke="none" /><path d="M 79.71946130924805 94.55025226153421 l -14.611427140946114 -3.926354878011195 a36.129774146472215,36.129774146472215 0 0,0 0.16656381494418962,-0.5992186640591807 l 14.541676555435563 4.177284845489319" fill="#ffac0f" stroke="none" /><path d="M 79.91906864156998 93.8553929516997 l -14.440186140175292 -4.418583379024437 a36.101087869431844,36.101087869431844 0 0,0 0.18694263503823477,-0.5926592397529531 l 14.361988021368854 4.666492785203804" fill="#ffac0f" stroke="none" /><path d="M 80.02781315780177 93.51064311812611 l -14.598361005220205 -4.7432950233144515 a36.34962513278202,36.34962513278202 0 0,0 0.19847363752887542,-0.5934109140099254 l 14.514550073919558 4.993879040246699" fill="#ffaf10" stroke="none" /><path d="M 80.14247586403 93.16781622104843 l -14.372928030972249 -4.945152531446244 a36.19985505663712,36.19985505663712 0 0,0 0.20779909534328772,-0.5874760250625989 l 14.285675854819152 5.191826182935453" fill="#ffad10" stroke="none" /><path d="M 80.65960295795068 91.81776055985345 l -14.33177393213164 -6.063267763314024 a36.56158603778455,36.56158603778455 0 0,0 0.2502018845959892,-0.5775004459049421 l 14.22528133769297 6.309067353805566" fill="#ffb210" stroke="none" /><path d="M 80.95270993114464 91.15688171328213 l -14.300901706907972 -6.6395043569844985 a36.76701645007893,36.76701645007893 0 0,0 0.27144879226048907,-0.5717403845734567 l 14.184494720805732 6.884687157198488" fill="#ffb510" stroke="none" /><path d="M 81.26839172434947 90.50648371742162 l -8.26575308172291 -4.189232462816045 a30.266733115587368,30.266733115587368 0 0,0 0.2395259777557625,-0.4626879494366651 l 8.192417670807032 4.330893134513046" fill="#ff5b08" stroke="none" /><path d="M 81.6062741919709 89.86733742301443 l -13.952490782689843 -7.686092675567937 a36.929470162515265,36.929470162515265 0 0,0 0.3115130214480361,-0.5541469055990433 l 13.818120119949375 7.925123091101765" fill="#ffb711" stroke="none" /><line stroke="#e1ed5e" stroke-width="0.3" x1="26.266209847984243" x2="21.928928074336255" y1="57.711370442889674" y2="55.22380399835377" /><path d="M 25.398753493254645 57.213857153982495 a86.0,86.0 0 0,1 29.58750427330803,-30.492523968695096" fill="none" id="id23" stroke="none" /><text fill="#e1ed5e" style="font-size:6.75px; font-family:Arial;" text-anchor="middle"><textPath startOffset="21.46611528233685" xlink:href="#id23">November</textPath></text><path d="M 82.15384107792192 88.93136811851018 l -10.610408005087146 -6.580839094480441 a33.48551966166645,33.48551966166645 0 0,0 0.3080227773331994,-0.4872180619111462 l 10.495557631507983 6.762504804105803" fill="#ff880c" stroke="none" /><path d="M 82.54541684631803 88.32363383020206 l -12.986329381825017 -8.68729638105441 a36.62414379175809,36.62414379175809 0 0,0 0.35503712580152563,-0.5209731728334527 l 12.834867790354751 8.909547577158277" fill="#ffb310" stroke="none" /><path d="M 82.7489923806493 88.02491185347247 l -12.731732599355606 -8.83795448355612 a36.49859524069533,36.49859524069533 0 0,0 0.36270458198187366,-0.5130199090556978 l 12.577715397569854 9.055800892943603" fill="#ffb110" stroke="none" /><path d="M 83.17141714833178 87.43820079747576 l -9.925059507653117 -7.408621730491305 a33.38525260848415,33.38525260848415 0 0,0 0.3477218089129197,-0.45756114103711465 l 9.796061758516087 7.578367647409446" fill="#ff870c" stroke="none" /><path d="M 83.39014120810768 87.1503855733568 l -20.470243510552297 -15.836060957874365 a46.880720547210835,46.880720547210835 0 0,0 0.49927056424752764,-0.6340229148747389 l 20.194618865710797 16.186076266702152" fill="#c9ff1d" stroke="none" /><path d="M 84.07557802195018 86.31012108654704 l -11.607638278367434 -9.978833939533192 a36.30733135442623,36.30733135442623 0 0,0 0.4114971559108913,-0.4704123836821193 l 11.4341492588787 10.177161879418255" fill="#ffae10" stroke="none" /><path d="M 84.5562425177563 85.77008943001954 l -11.082591218490789 -10.211522817817722 a36.06980512067031,36.06980512067031 0 0,0 0.4246492626660516,-0.45298622559854634 l 10.90517463385428 10.400778460294317" fill="#ffab0f" stroke="none" /><path d="M 84.80347519578584 85.50635884689758 l -9.197812141408322 -8.77238646919146 a33.710409613914564,33.710409613914564 0 0,0 0.40410070404896475,-0.41646129697717954 l 9.045447173656239 8.929411961718763" fill="#ff8b0c" stroke="none" /><path d="M 86.65592168130627 83.78471172551755 l -6.314278769183721 -7.672905392373412 a30.936981107724684,30.936981107724684 0 0,0 0.4141085832407459,-0.33484700832573755 l 6.181266787378474 7.780458497963284" fill="#ff6409" stroke="none" /><path d="M 86.93701828274178 83.55741782278169 l -9.454476295989343 -11.900499197207466 a36.19898033336973,36.19898033336973 0 0,0 0.49121575863974165,-0.38340169115357203 l 9.248227982190176 12.061479277584262" fill="#ffad10" stroke="none" /><path d="M 87.51073957382395 83.11751280151077 l -6.931332209664411 -9.369500138925687 a32.65465139135701,32.65465139135701 0 0,0 0.454762178201755,-0.3304040625919285 l 6.769024715108875 9.487423436334284" fill="#ff7d0b" stroke="none" /><path d="M 87.80319425747018 82.90503203632743 l -36.59041722758948 -51.284903891017706 a84.0,84.0 0 0,0 1.184275441665359,-0.8296606289442297 l 35.70221064634046 51.907149362725875" fill="#4dd2ff" stroke="none" /><path d="M 88.39885842347998 82.49532879139004 l -7.475709602263659 -11.279910496353711 a34.53228047533481,34.53228047533481 0 0,0 0.49830569804247127,-0.32411188728157975 l 7.2804368784369 11.406921307794825" fill="#ff960d" stroke="none" /><line stroke="#e1ed5e" stroke-width="0.3" x1="56.762969772571076" x2="54.21961505331055" y1="26.818313649435495" y2="22.513508569990535" /><path d="M 56.25429882871897 25.957352633546506 a86.0,86.0 0 0,1 42.265352541879196,-11.944610805530505" fill="none" id="id24" stroke="none" /><text fill="#e1ed5e" style="font-size:6.75px; font-family:Arial;" text-anchor="middle"><textPath startOffset="22.20632615414155" xlink:href="#id24">December</textPath></text><path d="M 89.63071344664047 81.73862282372117 l -5.794266348451849 -10.20429734528047 a32.73461575117394,32.73461575117394 0 0,0 0.4923845985370778,-0.27401149599239194 l 5.6177576608427255 10.302524238833046" fill="#ff7e0b" stroke="none" /><path d="M 89.94658935756843 81.56283822128135 l -6.120390836810828 -11.22431381953137 a33.78453772002104,33.78453772002104 0 0,0 0.5129698667990488,-0.2740107375725555 l 5.926275923483474 11.328003283605675" fill="#ff8c0c" stroke="none" /><path d="M 91.90106846888425 80.62456947434976 l -5.461872753986558 -13.066678694372078 a35.16227898619067,35.16227898619067 0 0,0 0.560446759938645,-0.22862030535906228 l 5.2361421244595325 13.158759885914716" fill="#ff9f0e" stroke="none" /><path d="M 92.23578459929587 80.48803036053334 l -6.489822812234295 -16.30933959744982 a38.55312958532299,38.55312958532299 0 0,0 0.6187168434382331,-0.24005252291114376 l 6.208122803796385 16.418634824251516" fill="#ffcc13" stroke="none" /><path d="M 93.25333710446033 80.11325718540243 l -0.9916322728815653 -2.92297633404627 a24.08660415570491,24.08660415570491 0 0,0 0.3937783314524222,-0.1298225247441095 l 0.9411711191867338 2.9396125830496134" fill="#ff0000" stroke="none" /><path d="M 94.63758080256005 79.69619591428918 l -3.869213495395857 -14.650058095758483 a36.15239305463174,36.15239305463174 0 0,0 0.6030410447525553,-0.15372858957639116 l 3.616463561958302 14.71448968150374" fill="#ffac10" stroke="none" /><path d="M 96.04723909329186 79.375362276772 l -2.87483436365914 -15.000253914708749 a36.27325407777303,36.27325407777303 0 0,0 0.6142355296919267,-0.11224761695650123 l 2.61620371286432 15.047517013015986" fill="#ffae10" stroke="none" /></svg>