<?xml version="1.0" encoding="utf-8" ?>
<svg baseProfile="full" height="200mm" version="1.1" viewBox="0,0,200,200" width="200mm" xmlns="http://www.w3.org/2000/svg" xmlns:ev="http://www.w3.org/2001/xml-events" xmlns:xlink="http://www.w3.org/1999/xlink"><defs /><rect fill="#1a1a1a" height="200" width="200" x="0" y="0" /><text alignment-baseline="middle" fill="#e1ed5e" style="dominant-baseline: central; font-size:9.0px; font-family:Arial;" text-anchor="middle" x="100.0" y="100.0">2020</text><line stroke="#e1ed5e" stroke-width="0.3" x1="100.0" x2="100.0" y1="15.0" y2="10.0" /><path d="M 100.0 14.0 a86.0,86.0 0 0,1 42.35913384403234,11.155469271406648" fill="none" id="id49" stroke="none" /><text fill="#e1ed5e" style="font-size:6.75px; font-family:Arial;" text-anchor="middle"><textPath startOffset="22.145653131862478" xlink:href="#id49">January</textPath></text><path d="M 101.44090949804482 79.04949213459386 l 1.4010945835713222 -20.371607747134142 a41.41973232525854,41.41973232525854 0 0,0 0.7089302869432588,0.05487568779789769 l -1.7505938652898145 20.34455429234119" fill="#fff316" stroke="none" /><path d="M 103.94208987418118 79.37332000966035 l 2.8792870397118087 -15.065646462665697 a36.33831793890985,36.33831793890985 0 0,0 0.6117011000618146,0.12235735170081735 l -3.1374846253045803 15.01399971430202" fill="#ffb110" stroke="none" /><path d="M 104.29559338865022 79.4440306129975 l 2.981932859512749 -14.269628204615017 a35.57786721974742,35.57786721974742 0 0,0 0.5967553319680551,0.13006004710343688 l -3.226450608099938 14.216336699377862" fill="#ffa60f" stroke="none" /><path d="M 104.64783097203109 79.52079915486377 l 3.2361837454921143 -14.259222698612163 a35.621843837327894,35.621843837327894 0 0,0 0.5951695060484471,0.14045838286488646 l -3.4804854052804464 14.20156817210105" fill="#ffa70f" stroke="none" /><path d="M 106.04205211174951 79.88797359093562 l 4.2042079456379415 -13.994440906499438 a35.612314694656355,35.612314694656355 0 0,0 0.5839730547727718,0.1809163451299732 l -4.443821633282344 13.92020797356282" fill="#ffa70f" stroke="none" /><path d="M 109.71004243097381 81.37971332152246 l 1.383154429792986 -2.6523809948756956 a23.9913610812862,23.9913610812862 0 0,0 0.3635390200270633,0.19356405174767535 l -1.428482265606609 2.6282464754054473" fill="#ff0100" stroke="none" /><line stroke="#e1ed5e" stroke-width="0.3" x1="143.13028292997686" x2="145.6673583964461" y1="26.7553504044142" y2="22.446841604673864" /><path d="M 143.63769802327073 25.89364864446614 a86.0,86.0 0 0,1 29.32050498858742,28.57503671076993" fill="none" id="id50" stroke="none" /><text fill="#e1ed5e" style="font-size:6.75px; font-family:Arial;" text-anchor="middle"><textPath startOffset="20.669276256404974" xlink:href="#id50">February</textPath></text><line stroke="#e1ed5e" stroke-width="0.3" x1="172.87174338648825" x2="177.1583165268699" y1="56.24261187166439" y2="53.66864786411523" /><path d="M 173.72905801456457 55.72781907015455 a86.0,86.0 0 0,1 12.242430191666344,42.057860355516425" fill="none" id="id51" stroke="none" /><text fill="#e1ed5e" style="font-size:6.75px; font-family:Arial;" text-anchor="middle"><textPath startOffset="22.145653131862474" xlink:href="#id51">March</textPath></text><path d="M 119.94978838288452 93.4421083053983 l 2.7792191480647674 -0.9135845362755004 a23.925524872205255,23.925524872205255 0 0,0 0.12490865331154885,0.3912745774429621 l -2.7944925171535737 0.8657409251411512" fill="#ff0000" stroke="none" /><path d="M 120.26092885502905 94.47779374421319 l 14.071683422611416 -3.8352998908294578 a35.58498541647517,35.58498541647517 0 0,0 0.15557504698298508,0.5907437937044234 l -14.135447950399131 3.5931755927522357" fill="#ffa60f" stroke="none" /><path d="M 120.65975698304385 96.23510406497455 l 7.1108421747503 -1.2958323188553127 a28.22794976689777,28.22794976689777 0 0,0 0.08278206848640195,0.4774649725509343 l -7.132039060728936 1.1735743133837857" fill="#ff4006" stroke="none" /><path d="M 120.7213421655516 96.59031103205396 l 14.450139995379157 -2.377765037316472 a35.64446354287998,35.64446354287998 0 0,0 0.09416674528052318,0.6046180553660828 l -14.488828232797944 2.129358800018948" fill="#ffa70f" stroke="none" /><path d="M 120.93736805541906 98.37931529534042 l 23.174481879221965 -1.7938514631185738 a44.243805915600824,44.243805915600824 0 0,0 0.05211507149207528,0.7577417018088194 l -23.201860911879105 1.3957663371554203" fill="#e8ff1a" stroke="none" /><line stroke="#e1ed5e" stroke-width="0.3" x1="184.99686870605535" x2="189.99668451229388" y1="99.2704041080226" y2="99.22748670261217" /><path d="M 185.99683186730306 99.26182062694052 a86.0,86.0 0 0,1 -10.086455211305974,41.156179273409016" fill="none" id="id52" stroke="none" /><text fill="#e1ed5e" style="font-size:6.75px; font-family:Arial;" text-anchor="middle"><textPath startOffset="21.40746469413373" xlink:href="#id52">April</textPath></text><path d="M 120.93736805541906 101.62068470465957 l 43.40475553050187 3.3598025889202097 a64.5345963125782,64.5345963125782 0 0,0 -0.09497764679454893,1.1037842243612668 l -43.34068426100958 -4.104407860657133" fill="#34ff5c" stroke="none" /><path d="M 120.65975698304385 103.76489593502545 l 28.690470038993816 5.228359370946625 a50.16296988940199,50.16296988940199 0 0,0 -0.16165305535972557,0.8458370937213487 l -28.59649069135193 -5.720099029701288" fill="#a2ff22" stroke="none" /><path d="M 120.26092885502905 105.52220625578681 l 14.137105871921142 3.853131070309528 a35.65279432323036,35.65279432323036 0 0,0 -0.16600876146096805,0.5891065295655589 l -14.068878618385593 -4.095245523778095" fill="#ffa70f" stroke="none" /><path d="M 119.94978838288452 106.5578916946017 l 13.830756518725783 4.546444381436375 a35.55884550346524,35.55884550346524 0 0,0 -0.1955983356050568,0.5782517236697814 l -13.750672761548362 -4.783197779580317" fill="#ffa60f" stroke="none" /><path d="M 119.58574465831526 107.57618678355244 l 21.72272982559108 8.402818553924732 a44.29129345325858,44.29129345325858 0 0,0 -0.28038777329240067,0.7067603515467822 l -21.575283377332557 -8.774479922685078" fill="#e7ff1a" stroke="none" /><path d="M 119.31412917781788 108.2440532568976 l 56.38045362716733 24.06546306443038 a82.30172969591175,82.30172969591175 0 0,0 -0.5657895818803712,1.2946372876959706 l -55.95903016326999 -25.029762421902195" fill="#4be2ff" stroke="none" /><path d="M 118.8641267826498 109.22738970284198 l 18.29032439800889 8.94671420290992 a41.361229373811135,41.361229373811135 0 0,0 -0.3174574542923964,0.6351275649027824 l -18.134047030504764 -9.259373623976447" fill="#fff216" stroke="none" /><path d="M 118.5362547648365 109.86951160357373 l 15.451264158104427 8.226927868275851 a38.50496804433919,38.50496804433919 0 0,0 -0.3156575862736076,0.5807744054885379 l -15.30776122221548 -8.490957107238993" fill="#ffcd13" stroke="none" /><line stroke="#e1ed5e" stroke-width="0.3" x1="174.33088141563837" x2="178.70328620479359" y1="141.23008692659167" y2="143.65538615756765" /><path d="M 175.20536237346943 141.71514677278685 a86.0,86.0 0 0,1 -30.301960400862466,31.631185727798858" fill="none" id="id53" stroke="none" /><text fill="#e1ed5e" style="font-size:6.75px; font-family:Arial;" text-anchor="middle"><textPath startOffset="22.145653131862474" xlink:href="#id53">May</textPath></text><path d="M 116.57777611688842 112.89097897827486 l 17.410315467857135 13.538366613157379 a43.05462435052023,43.05462435052023 0 0,0 -0.4587030849204108,0.5795563631493961 l -17.175345952295164 -13.835242920221457" fill="#f7ff19" stroke="none" /><path d="M 116.35404254752997 113.17365903436017 l 25.65323027806291 20.664426415116974 a53.94095843725722,53.94095843725722 0 0,0 -0.5870656011501013,0.7161245778716068 l -25.294717857674183 -21.101753274687074" fill="#78ff26" stroke="none" /><path d="M 115.89218393027572 113.72728997021213 l 22.03837541330035 19.036223787621285 a50.12160378396011,50.12160378396011 0 0,0 -0.5680184360587619,0.6463007105287346 l -21.708345913283004 -19.411736775961312" fill="#a2ff22" stroke="none" /><path d="M 114.39649973595853 115.28858382429668 l 10.346279944315187 10.987390761603805 a36.09199338836044,36.09199338836044 0 0,0 -0.4547079497377764,0.42087088988175997 l -10.156142223263444 -11.163379397617945" fill="#ffad10" stroke="none" /><path d="M 114.13192950727249 115.5334660781643 l 10.156142223263444 11.163379397617945 a36.09199338836044,36.09199338836044 0 0,0 -0.4618657559577079,0.41300320698296467 l -9.963011440482358 -11.336078134484296" fill="#ffad10" stroke="none" /><path d="M 113.59037401385872 116.0094264158162 l 9.491463264898936 11.180919860106039 a35.66631664144204,35.66631664144204 0 0,0 -0.47015961201237505,0.3922238701467783 l -9.298129318724666 -11.342205914164687" fill="#ffa80f" stroke="none" /><path d="M 113.03279911837588 116.46651593811092 l 23.667753334984898 29.90343317425226 a59.136306369818506,59.136306369818506 0 0,0 -0.8014097478026004,0.6231810671748298 l -23.150933642547066 -30.305315293047883" fill="#41ff2d" stroke="none" /><path d="M 112.45986205192187 116.90419585922612 l 17.292802176646518 23.461007331441152 a50.14549488560052,50.14549488560052 0 0,0 -0.6973065119424012,0.5047961399014885 l -16.88751465433015 -23.75440424271572" fill="#a2ff22" stroke="none" /><path d="M 112.16784306229584 117.11559508785304 l 13.89499824099295 19.54505514425933 a44.9808289412467,44.9808289412467 0 0,0 -0.6331692303859999,0.4420012972099648 l -13.55743391943319 -19.780701257274416" fill="#dfff1b" stroke="none" /><path d="M 111.27062007382361 117.71928675628689 l 7.842890849912627 12.330327085607646 a35.613278308501236,35.613278308501236 0 0,0 -0.5186579999111821,0.32368095172439443 l -7.63006872121173 -12.463143834173588" fill="#ffa70f" stroke="none" /><path d="M 110.96478420261333 117.91015095944535 l 7.589649911927795 12.397122746799722 a35.53586730074421,35.53586730074421 0 0,0 -0.5229986928562733,0.3140456880872101 l -7.375718462514085 -12.525582435422857" fill="#ffa60f" stroke="none" /><line stroke="#e1ed5e" stroke-width="0.3" x1="143.1302829299769" x2="145.66735839644613" y1="173.24464959558577" y2="177.55315839532614" /><path d="M 143.63769802327073 174.10635135553383 a86.0,86.0 0 0,1 -40.68552437913181,11.842963189579606" fill="none" id="id54" stroke="none" /><text fill="#e1ed5e" style="font-size:6.75px; font-family:Arial;" text-anchor="middle"><textPath startOffset="21.407464694133747" xlink:href="#id54">June</textPath></text><path d="M 110.65571695917076 118.09573695890943 l 14.793524405282328 25.122638613519317 a50.15467947406,50.15467947406 0 0,0 -0.7456508906594761,0.4305017424437344 l -14.360081046762454 -25.372887253239224" fill="#a2ff22" stroke="none" /><path d="M 110.02825361518725 118.45085714620011 l 15.303913283191656 28.157476725396016 a53.04767163649597,53.04767163649597 0 0,0 -0.803826781486449,0.42799248541801344 l -14.818297685918653 -28.416039678536595" fill="#81ff25" stroke="none" /><path d="M 109.71004243097381 118.62028667847754 l 6.774483061482696 12.990964519466813 a35.65123816939584,35.65123816939584 0 0,0 -0.5450781946856524,0.27832081004239606 l -6.550477645083462 -13.105343281182044" fill="#ffa70f" stroke="none" /><path d="M 108.4095320186766 119.2426549942271 l 5.866511906017616 13.423727310427394 a35.649655861082906,35.649655861082906 0 0,0 -0.562865498370474,0.24025381120292588 l -5.63521133247671 -13.522455771289724" fill="#ffa70f" stroke="none" /><path d="M 108.07796709384702 119.3841803445677 l 5.646545263306318 13.549653079308138 a35.67912027269249,35.67912027269249 0 0,0 -0.5673753830340647,0.2307466289081805 l -5.413115419081812 -13.644586964795609" fill="#ffa80f" stroke="none" /><path d="M 107.06938296918513 119.77432235084164 l 5.002993510628937 13.994263265914013 a35.861673809605215,35.861673809605215 0 0,0 -0.581461568427371,0.20226251698683664 l -4.7620261701565445 -14.078084215469438" fill="#ffaa0f" stroke="none" /><path d="M 106.72888874123015 119.89276391827305 l 4.68245699348898 13.842852083167926 a35.61334859956268,35.61334859956268 0 0,0 -0.5807981967416725,0.19091990338702167 l -4.4441360590995735 -13.921192907956968" fill="#ffa70f" stroke="none" /><path d="M 106.38641147887787 120.00534299687104 l 6.201661225206968 19.426615458617437 a41.39249837879679,41.39249837879679 0 0,0 -0.6787568831230847,0.21028061744085633 l -5.867263709212259 -19.530212663864937" fill="#fff216" stroke="none" /><path d="M 105.3480935250658 120.30758222061773 l 8.907847358746272 33.824547345444294 a55.977846527351076,55.977846527351076 0 0,0 -0.9313506320617876,0.23674568865178675 l -8.325891433459088 -33.97247826593136" fill="#62ff29" stroke="none" /><path d="M 103.94208987418118 120.62667999033965 l 0.5655955943084938 2.9594351473710456 a24.012997638199582,24.012997638199582 0 0,0 -0.40555124788523284,0.07390494698755674 l -0.5147096128722038 -2.968708268289966" fill="#ff0100" stroke="none" /><path d="M 103.2317021107853 120.74984581791261 l 2.2386437673952453 14.373698881359656 a35.54698406712874,35.54698406712874 0 0,0 -0.6037484184813537,0.08873022629812458 l -1.991570243306206 -14.410010180956663" fill="#ffa60f" stroke="none" /><path d="M 102.875027216393 120.80226474461374 l 3.1880163347798613 23.0668980899062 a44.28615974438339,44.28615974438339 0 0,0 -0.7539659186621435,0.0976159830943735 l -2.7915725942269427 -23.118225669200967" fill="#e8ff1a" stroke="none" /><path d="M 102.51750503828377 120.84855314841334 l 3.502869175342801 29.00878173568982 a50.219505646886944,50.219505646886944 0 0,0 -0.8567545672683581,0.09600113628143614 l -3.004378706473644 -29.064638632478225" fill="#a1ff22" stroke="none" /><path d="M 101.80034050326958 120.92268563240118 l 1.2598611431828137 14.641496201090872 a35.695600059428,35.695600059428 0 0,0 -0.610957400545779,0.047291966766894414 l -1.0083347478617988 -14.66096593485282" fill="#ffa80f" stroke="none" /><path d="M 100.72087961077811 120.9876233191556 l 1.020366368444342 29.706853499892127 a50.72437202683861,50.72437202683861 0 0,0 -0.8704946824092873,0.02242085516164674 l -0.510258371964311 -29.71999207240382" fill="#9bff22" stroke="none" /><line stroke="#e1ed5e" stroke-width="0.3" x1="101.45913802915013" x2="101.54496967792366" y1="184.9874750549273" y2="189.98673829345242" /><path d="M 101.47630435890484 185.9873277026323 a86.0,86.0 0 0,1 -42.54439059252881,-10.42667462771756" fill="none" id="id55" stroke="none" /><text fill="#e1ed5e" style="font-size:6.75px; font-family:Arial;" text-anchor="middle"><textPath startOffset="22.145653131862474" xlink:href="#id55">July</textPath></text><path d="M 100.36049292484886 120.99690560180557 l 0.25129866365556824 14.636887314357555 a35.63904441114775,35.63904441114775 0 0,0 -0.6117915885044187,0.005251494984630533 l -1.7927658880688043e-15 -14.63904441114775" fill="#ffa70f" stroke="none" /><path d="M 99.63950707515114 120.99690560180557 l -0.25261390567835207 14.713493568440276 a35.715661955001394,35.715661955001394 0 0,0 -0.6129261451301223,-0.0157868032998324 l 0.5051533648792182 -14.706989047790398" fill="#ffa80f" stroke="none" /><path d="M 99.27912038922189 120.98762331915562 l -0.1014044549959941 2.952280065242802 a23.954021064096036,23.954021064096036 0 0,0 -0.4108391103482037,-0.017643199130246 l 0.15206932594503653 -2.9501042976867273" fill="#ff0000" stroke="none" /><path d="M 98.19965949673042 120.92268563240118 l -2.540097093929739 29.519778550529935 a50.628861249108404,50.628861249108404 0 0,0 -0.8652724003630708,-0.08194219593470604 l 3.046469057677825 -29.47182459909005" fill="#9dff22" stroke="none" /><path d="M 97.84075906011543 120.88869738790638 l -2.4162757310938616 23.375275829690466 a44.49982784027969,44.49982784027969 0 0,0 -0.7591757476246407,-0.08506722601041684 l 2.8171873803193015 -23.33035284317308" fill="#e5ff1a" stroke="none" /><path d="M 96.05791012581884 120.62667999033965 l -5.564589200637429 29.116282069314686 a50.64325445209663,50.64325445209663 0 0,0 -0.852503258712672,-0.1705245274887609 l 6.063588944881059 -29.016468145163063" fill="#9cff22" stroke="none" /><path d="M 95.00130118170881 120.39639698878247 l -6.917771887745946 28.226869997448617 a50.06220497043803,50.06220497043803 0 0,0 -0.8329271155303422,-0.21172681563166657 l 7.401304296501667 -28.103957949981687" fill="#a3ff22" stroke="none" /><path d="M 94.6519064749342 120.30758222061772 l -3.7291050515242152 14.160019283173819 a35.6428265913777,35.6428265913777 0 0,0 -0.5903446672257422,-0.16090106419850664 l 3.9716311196846528 -14.09391772483117" fill="#ffa70f" stroke="none" /><path d="M 93.95794788825049 120.11202640906438 l -7.560539376666377 25.166576652755193 a47.277715579652764,47.277715579652764 0 0,0 -0.775263057918292,-0.24017847708305273 l 7.991443067456302 -25.033081587865492" fill="#c3ff1e" stroke="none" /><path d="M 93.27111125876986 119.89276391827306 l -9.504020409943111 28.096947588240866 a50.66083052999308,50.66083052999308 0 0,0 -0.8214152561365705,-0.28573086549282795 l 9.984941438124704 -27.929658290179447" fill="#9cff22" stroke="none" /><path d="M 92.93061703081489 119.77432235084164 l -9.979548329927308 27.914572806703294 a50.64480999854939,50.64480999854939 0 0,0 -0.8161311007583363,-0.2996946447921164 l 10.457268582339763 -27.739147312902457" fill="#9cff22" stroke="none" /><path d="M 91.92203290615298 119.3841803445677 l -5.647341149881573 13.551562917356426 a35.68118931034593,35.68118931034593 0 0,0 -0.5633633738816411,-0.24046632465313525 l 5.879139598933645 -13.452621943043887" fill="#ffa80f" stroke="none" /><path d="M 90.93487009805054 118.94263497670748 l -12.81092340767005 26.769902742801772 a50.67738956539564,50.67738956539564 0 0,0 -0.7814930097574633,-0.3822673921865019 l 13.268576666689583 -26.54604160051805" fill="#9cff22" stroke="none" /><path d="M 89.97174638481275 118.45085714620012 l -5.603066925176784 10.309012055745182 a32.73328975750235,32.73328975750235 0 0,0 -0.49139808746775876,-0.27257023562744864 l 5.779209200800645 -10.211308904684584" fill="#ff800b" stroke="none" /><line stroke="#e1ed5e" stroke-width="0.3" x1="58.13341422392154" x2="55.67067388415222" y1="173.97424548756322" y2="178.32567169271397" /><path d="M 57.64086615596768 174.84453072859336 a86.0,86.0 0 0,1 -31.369924170532247,-30.572349798747897" fill="none" id="id56" stroke="none" /><text fill="#e1ed5e" style="font-size:6.75px; font-family:Arial;" text-anchor="middle"><textPath startOffset="22.145653131862474" xlink:href="#id56">August</textPath></text><path d="M 89.34428304082925 118.09573695890944 l -15.028001674066129 25.52083227754151 a50.616780960363315,50.616780960363315 0 0,0 -0.7449518553979043,-0.4473221849611193 l 15.46388628602146 -25.25909609204447" fill="#9dff22" stroke="none" /><path d="M 89.03521579738668 117.91015095944536 l -15.485040296296631 25.293649578043375 a50.657295594082484,50.657295594082484 0 0,0 -0.7377532443415844,-0.4604125884631777 l 15.916957669427928 -25.024101192738648" fill="#9cff22" stroke="none" /><path d="M 88.4268655584334 117.5232005979908 l -11.87916571017508 17.98657094386903 a42.555308216043514,42.555308216043514 0 0,0 -0.6061166975521242,-0.4078223642418299 l 12.186178695824209 -17.77999890557008" fill="#fdff18" stroke="none" /><path d="M 87.2517909369889 116.68781488649013 l -37.2458704112211 48.75603997679089 a82.35475773652689,82.35475773652689 0 0,0 -1.1160640506566926,-0.8678581562437023 l 38.077344406513014 -48.109480768926396" fill="#4be2ff" stroke="none" /><path d="M 86.68645165197938 116.24036423190432 l -18.781235578963646 22.910053620146876 a50.62440491808291,50.62440491808291 0 0,0 -0.6673397428145836,-0.556718548216345 l 19.171749655940122 -22.58427288801866" fill="#9dff22" stroke="none" /><path d="M 86.13680546590413 115.77377054828092 l -9.697787001931028 11.034301409991555 a35.69023077903693,35.69023077903693 0 0,0 -0.4567244386224853,-0.40840580931887 l 9.885776467376884 -10.866200070789303" fill="#ffa80f" stroke="none" /><path d="M 85.34317274990678 115.03919595460226 l -10.590479654647337 10.866765096003771 a36.173820974534564,36.173820974534564 0 0,0 -0.4409900213930039,-0.43722089855936513 l 10.775461596170304 -10.683364187215748" fill="#ffae10" stroke="none" /><path d="M 84.83555147118756 114.52719865689866 l -18.242250725314587 17.47566353844535 a46.262195621801936,46.262195621801936 0 0,0 -0.5444491317371718,-0.5781861106028826 l 18.539555690788013 -17.159935967897976" fill="#d0ff1d" stroke="none" /><path d="M 84.58840730492382 114.26474011684316 l -21.73990817471652 20.122134448533846 a50.62302992960002,50.62302992960002 0 0,0 -0.5848220691081569,-0.6428218996973128 l 22.082127944666556 -19.74597497327886" fill="#9dff22" stroke="none" /><path d="M 84.1078160697243 113.72728997021213 l -22.39611703736354 19.34523248205092 a50.59432510019249,50.59432510019249 0 0,0 -0.5620919572173085,-0.6621429122418655 l 22.72490355808796 -18.9579227873595" fill="#9dff22" stroke="none" /><path d="M 82.18462484594161 111.11811171558189 l -12.426705373200289 7.755183228032619 a35.64806722174237,35.64806722174237 0 0,0 -0.3195289645894826,-0.5219265501229791 l 12.558002302245175 -7.540719561785083" fill="#ffa70f" stroke="none" /><line stroke="#e1ed5e" stroke-width="0.3" x1="26.387840678322732" x2="22.057713659400548" y1="142.50000000000003" y2="145.00000000000006" /><path d="M 25.521815274538298 143.00000000000003 a86.0,86.0 0 0,1 -11.493303480769221,-40.785679425670985" fill="none" id="id57" stroke="none" /><text fill="#e1ed5e" style="font-size:6.75px; font-family:Arial;" text-anchor="middle"><textPath startOffset="21.40746469413373" xlink:href="#id57">September</textPath></text><path d="M 81.81346652052679 110.50000000000001 l -12.698435354031322 7.331445069937053 a35.662890139874094,35.662890139874094 0 0,0 -0.30154949503570044,-0.5328090638135375 l 12.822418214088401 -7.1123792360243945" fill="#ffa80f" stroke="none" /><path d="M 81.4637452351635 109.86951160357371 l -25.71325201819072 13.690858395006911 a50.13092743019213,50.13092743019213 0 0,0 -0.39792481416263864,-0.7630732995103069 l 25.94448490132831 -13.247438852392103" fill="#a2ff22" stroke="none" /><path d="M 80.9802524753101 108.90220220490708 l -13.272650826537609 6.212270762247738 a35.65454086577493,35.65454086577493 0 0,0 -0.25470166801554756,-0.5565691109465547 l 13.377336959408211 -5.983512669086494" fill="#ffa70f" stroke="none" /><path d="M 80.83023694016515 108.57439118712176 l -21.3188262053481 9.53563979713019 a44.354245376685796,44.354245376685796 0 0,0 -0.3049166771951892,-0.6977090292565947 l 21.479376764560254 -9.168268698097744" fill="#e7ff1a" stroke="none" /><path d="M 80.5471966667186 107.91128576633889 l -26.976542104203183 10.97112482543276 a50.122146277963,50.122146277963 0 0,0 -0.31730021617781595,-0.7998038206103945 l 27.160900995347124 -10.506419987608801" fill="#a2ff22" stroke="none" /><path d="M 80.16572619554312 106.89939002012753 l -27.487352171419964 9.561527945056957 a50.10287521946536,50.10287521946536 0 0,0 -0.27560059566613454,-0.8147641900703544 l 27.647438188658466 -9.088262080512441" fill="#a3ff22" stroke="none" /><path d="M 80.05021161711548 106.5578916946017 l -27.965312803595022 9.192753780234208 a50.437483626609904,50.437483626609904 0 0,0 -0.2633203739468301,-0.8248473209552976 l 28.118997893319108 -8.711337425587518" fill="#9fff22" stroke="none" /><path d="M 79.48165901384964 104.47187691870673 l -28.51949843256412 6.215691944088527 a50.188981091994876,50.188981091994876 0 0,0 -0.17624049319601298,-0.8433745597196503 l 28.6219966365845 -5.7252009330834674" fill="#a2ff22" stroke="none" /><path d="M 79.407916724674 104.11899336999214 l -28.676043650037958 5.73601184944905 a50.24409874412105,50.24409874412105 0 0,0 -0.16191449775981404,-0.8472050708336251 l 28.770284440079926 -5.2429042135821105" fill="#a1ff22" stroke="none" /><path d="M 79.22317932658666 103.0534771498775 l -25.95413648300699 3.814364283226208 a47.232929220041484,47.232929220041484 0 0,0 -0.11100971696040836,-0.8032110124968869 l 26.015790716522613 -3.368264962529236" fill="#c4ff1e" stroke="none" /><path d="M 79.13060592940153 102.33845913500099 l -29.642955323990076 3.3215549733410508 a50.82846841158624,50.82846841158624 0 0,0 -0.08971855799231968,-0.8679456624609381 l 29.695606274464065 -2.8122047885971817" fill="#9aff22" stroke="none" /><path d="M 79.00696218219943 100.54070618675478 l -29.1187018085438 0.7499944674418003 a50.12835880574265,50.12835880574265 0 0,0 -0.014772513205521453,-0.8604248347114214 l 29.127285753347987 -0.25002271676132654" fill="#a2ff22" stroke="none" /><line stroke="#e1ed5e" stroke-width="0.3" x1="15.003131293944662" x2="10.003315487706104" y1="100.72959589197737" y2="100.7725132973878" /><path d="M 14.003168132696942 100.73817937305945 a86.0,86.0 0 0,1 10.791469493833604,-42.45332614584628" fill="none" id="id58" stroke="none" /><text fill="#e1ed5e" style="font-size:6.75px; font-family:Arial;" text-anchor="middle"><textPath startOffset="22.145653131862435" xlink:href="#id58">October</textPath></text><path d="M 79.03789590574601 98.7389718711861 l -29.05006631275488 -1.747579851696992 a50.10258387348988,50.10258387348988 0 0,0 0.05901616478215696,-0.858082083664767 l 29.015786186807656 2.2460053595160843" fill="#a3ff22" stroke="none" /><path d="M 79.0935383218832 98.0201363427161 l -14.602048513636085 -1.3828291759339302 a35.66738004295232,35.66738004295232 0 0,0 0.06295735450664268,-0.6090552945437805 l 14.576158766647778 1.6332889927606236" fill="#ffa80f" stroke="none" /><path d="M 79.13060592940154 97.66154086499901 l -14.474231639627387 -1.6218678455783468 a35.56481503027455,35.56481503027455 0 0,0 0.07319224324615511,-0.6061367703992225 l 14.444257310121564 1.8700982929010055" fill="#ffa60f" stroke="none" /><path d="M 79.17382384314186 97.30363454192245 l -28.906014537128524 -3.7424623004033672 a50.14727603894789,50.14727603894789 0 0,0 0.11785919296865303,-0.8527704088298537 l 28.837510827604664 4.238121017433288" fill="#a2ff22" stroke="none" /><path d="M 79.34024301695615 96.23510406497455 l -22.914401059113278 -4.17576719183112 a44.291775534258115,44.291775534258115 0 0,0 0.14273279389569496,-0.7468382908000473 l 22.839341972935422 4.568508047664482" fill="#e7ff1a" stroke="none" /><path d="M 79.407916724674 95.88100663000787 l -14.437685982085497 -2.887941547395332 a35.7236878158456,35.7236878158456 0 0,0 0.12544507225410145,-0.6003000823632281 l 14.385983199007029 3.135358081043969" fill="#ffa80f" stroke="none" /><path d="M 79.48165901384962 95.52812308129327 l -20.087181634184002 -4.377907744705551 a41.55871937222384,41.55871937222384 0 0,0 0.15790163873698349,-0.6957437550827484 l 20.009069133889355 4.7220858337273075" fill="#fff417" stroke="none" /><path d="M 79.73907114497095 94.47779374421319 l -28.181980856671284 -7.681124202188073 a50.209993392933626,50.209993392933626 0 0,0 0.2337908984231582,-0.8296414213442872 l 28.045971466173544 8.163773547435373" fill="#a1ff22" stroke="none" /><path d="M 79.94057633289273 93.78553927170692 l -13.95797341430673 -4.3242158433496405 a35.6124557995694,35.6124557995694 0 0,0 0.1859229387359837,-0.5824009575175582 l 13.88168575979349 4.563185834558591" fill="#ffa70f" stroke="none" /><path d="M 80.41425534168474 92.42381321644754 l -27.16145257684679 -10.506633351182181 a50.12273768828183,50.12273768828183 0 0,0 0.3173039601240576,-0.7998132578006504 l 26.977089941756603 10.971347626196415" fill="#a2ff22" stroke="none" /><path d="M 80.5471966667186 92.08871423366112 l -18.89560009570739 -7.684676060434157 a41.39847908866509,41.39847908866509 0 0,0 0.27337614881404215,-0.6560032380611142 l 18.76089810235687 8.007911807936534" fill="#fff216" stroke="none" /><path d="M 80.68587082218212 91.75594674310238 l -13.474728985691138 -5.7515605470777045 a35.650896558385966,35.650896558385966 0 0,0 0.24508483517849933,-0.5608020657015187 l 13.374010268495663 5.982024682555091" fill="#ffa70f" stroke="none" /><path d="M 80.83023694016515 91.42560881287825 l -21.483836582965306 -9.609446840191064 a44.53501015291934,44.53501015291934 0 0,0 0.3181401609893391,-0.6951936669194492 l 21.31571195712092 9.976829489325183" fill="#e5ff1a" stroke="none" /><path d="M 81.29705330413844 90.45014215332179 l -23.35049533996922 -11.922929299454752 a47.21834998053312,47.21834998053312 0 0,0 0.37480561609867497,-0.7187391888421241 l 23.14238165489561 12.322014731401364" fill="#c4ff1e" stroke="none" /><path d="M 81.46374523516351 90.13048839642627 l -12.903801889282482 -6.870547696511089 a35.61890997468293,35.61890997468293 0 0,0 0.2919981425606591,-0.5372436938754036 l 12.783958397106472 7.091046223861112" fill="#ffa70f" stroke="none" /><line stroke="#e1ed5e" stroke-width="0.3" x1="26.387840678322718" x2="22.05771365940052" y1="57.49999999999999" y2="54.99999999999999" /><path d="M 25.521815274538284 56.99999999999999 a86.0,86.0 0 0,1 29.574782752854787,-30.34633250058573" fill="none" id="id59" stroke="none" /><text fill="#e1ed5e" style="font-size:6.75px; font-family:Arial;" text-anchor="middle"><textPath startOffset="21.40746469413373" xlink:href="#id59">November</textPath></text><path d="M 81.99639281039701 89.18935116829357 l -24.974978710998016 -14.996757126531016 a50.131637199563,50.131637199563 0 0,0 0.44935143405988026,-0.7339817974655132 l 24.713859312482743 15.423276040121072" fill="#a2ff22" stroke="none" /><path d="M 82.18462484594161 88.88188828441811 l -12.415393485820509 -7.748123773684058 a35.634733254148586,35.634733254148586 0 0,0 0.3283185927765872,-0.5161713601135804 l 12.280557201418032 7.96010880847631" fill="#ffa70f" stroke="none" /><path d="M 83.2033758604659 87.39550010848427 l -49.82939861662376 -37.392909684704634 a83.29926693936987,83.29926693936987 0 0,0 0.8680895170246126,-1.1363570438330706 l 49.18015712224484 38.24278764177859" fill="#4cd9ff" stroke="none" /><path d="M 84.83555147118756 85.47280134310135 l -21.088504774775554 -20.202310532957537 a50.20373922130141,50.20373922130141 0 0,0 0.6015201628410747,-0.6172126781090143 l 20.738597810783677 20.56134590313428" fill="#a1ff22" stroke="none" /><path d="M 85.08716467003674 85.21462403516908 l -14.506598639754003 -14.382611362221505 a41.42794443138163,41.42794443138163 0 0,0 0.5050423098495259,-0.5007257348485892 l 14.257564409774501 14.629517107298767" fill="#fff316" stroke="none" /><path d="M 85.60350026404147 84.71141617570332 l -19.980886671028788 -21.219009228388444 a50.14587766382975,50.14587766382975 0 0,0 0.6317669676753315,-0.5847540735471093 l 19.613689932039506 21.55888104806792" fill="#a2ff22" stroke="none" /><path d="M 86.13680546590413 84.22622945171909 l -2.251257392801303 -2.5615176553882786 a24.410210044485293,24.410210044485293 0 0,0 0.31712410492545795,-0.2739242487977055 l 2.2069538081129965 2.5997860366506944" fill="#ff0701" stroke="none" /><path d="M 86.40962598614128 83.9905735841838 l -1.9848974170373441 -2.3382041663164297 a24.06708599154654,24.06708599154654 0 0,0 0.3172565287805935,-0.2646666799282238 l 1.9444665540948416 2.3719330301565353" fill="#ff0200" stroke="none" /><path d="M 86.68645165197937 83.75963576809568 l -18.46447676811271 -22.523659375170897 a50.12476839339496,50.12476839339496 0 0,0 0.6701185767889224,-0.5398000902560467 l 18.075107420968543 22.837307759220344" fill="#a2ff22" stroke="none" /><path d="M 87.83215693770416 82.88440491214696 l -10.53019957627068 -14.812044437046218 a39.1736557555469,39.1736557555469 0 0,0 0.5514249970480354,-0.3849374737629733 l 10.27437948804888 14.99062672661432" fill="#ffd614" stroke="none" /><path d="M 88.72937992617638 82.28071324371311 l -33.811860221470866 -53.157860268860674 a84.0,84.0 0 0,0 1.2233434848412057,-0.7634568126338559 l 32.89435260783996 53.73045287833607" fill="#4dd2ff" stroke="none" /><line stroke="#e1ed5e" stroke-width="0.3" x1="56.869717070023135" x2="54.33264160355391" y1="26.7553504044142" y2="22.446841604673864" /><path d="M 56.362301976729285 25.89364864446614 a86.0,86.0 0 0,1 42.16139366436587,-11.88097634709845" fill="none" id="id60" stroke="none" /><text fill="#e1ed5e" style="font-size:6.75px; font-family:Arial;" text-anchor="middle"><textPath startOffset="22.145653131862474" xlink:href="#id60">December</textPath></text><path d="M 90.28995756902619 81.37971332152246 l -13.451523880175243 -25.795070690142165 a50.09173708475237,50.09173708475237 0 0,0 0.7658615807140106,-0.391054380092389 l 13.00673507774765 26.022183021907384" fill="#a3ff22" stroke="none" /><path d="M 91.5904679813234 80.7573450057729 l -11.664896114795951 -26.691565117061334 a50.12918553216528,50.12918553216528 0 0,0 0.7914799825114234,-0.33783574022516344 l 11.204981057114097 26.8878755069459" fill="#a2ff22" stroke="none" /><path d="M 92.25597844496254 80.48000691201159 l -7.550376431481561 -19.0318808782703 a41.474879096633096,41.474879096633096 0 0,0 0.6640478458102551,-0.25686797213187346 l 7.222556323177776 19.158688738540214" fill="#fff316" stroke="none" /><path d="M 92.93061703081487 80.22567764915836 l -6.885366731627746 -19.25959618377588 a41.45336940924699,41.45336940924699 0 0,0 0.6721253815778471,-0.23380009753069764 l 6.553735578004895 19.374954713875162" fill="#fff316" stroke="none" /><path d="M 93.61358852112211 79.99465700312896 l -8.863340860015727 -27.764289004746537 a50.144717448277206,50.144717448277206 0 0,0 0.8222763412057317,-0.25474331242162035 l 8.38542388593838 27.9123489049748" fill="#a2ff22" stroke="none" /><path d="M 94.6519064749342 79.69241777938228 l -7.411288897813084 -28.14187110746882 a50.10141083446361,50.10141083446361 0 0,0 0.8335794165477275,-0.21189262799948225 l 6.927104188039979 28.264948967303564" fill="#a3ff22" stroke="none" /><path d="M 96.41257539226777 79.30868818359171 l -4.9849063602970745 -28.751615198878245 a50.180552907121154,50.180552907121154 0 0,0 0.8500167418237391,-0.13986993139779155 l 4.490612115420262 28.832951128771708" fill="#a2ff22" stroke="none" /><path d="M 96.76829788921471 79.25015418208739 l -3.5938308462235367 -23.074972073052884 a44.35315730952537,44.35315730952537 0 0,0 0.7533170333019381,-0.11071166199862117 l 3.197188707313914 23.13326480835039" fill="#e7ff1a" stroke="none" /><path d="M 98.1996594967304 79.07731436759882 l -2.297501309220182 -26.700447801704417 a47.79911239346204,47.79911239346204 0 0,0 0.8181182388778303,-0.06332752583050094 l 1.8388140755671343 26.73595309452997" fill="#bdff1f" stroke="none" /></svg>