<?xml version="1.0" encoding="utf-8" ?>
<svg baseProfile="full" height="200mm" version="1.1" viewBox="0,0,200,200" width="200mm" xmlns="http://www.w3.org/2000/svg" xmlns:ev="http://www.w3.org/2001/xml-events" xmlns:xlink="http://www.w3.org/1999/xlink"><defs /><rect fill="#1a1a1a" height="200" width="200" x="0" y="0" /><text alignment-baseline="middle" fill="#e1ed5e" style="dominant-baseline: central; font-size:9.0px; font-family:Arial;" text-anchor="middle" x="100.0" y="100.0">2019</text><line stroke="#e1ed5e" stroke-width="0.3" x1="100.0" x2="100.0" y1="15.0" y2="10.0" /><path d="M 100.0 14.0 a86.0,86.0 0 0,1 42.46469731375804,11.215312516191453" fill="none" id="id37" stroke="none" /><text fill="#e1ed5e" style="font-size:6.75px; font-family:Arial;" text-anchor="middle"><textPath startOffset="22.20632615414155" xlink:href="#id37">January</textPath></text><path d="M 100.36148047927253 79.00311137660856 l 0.07854859846501722 -4.562559441142147 a25.563235533727813,25.563235533727813 0 0,0 0.4398986876252066,0.011361285273814269 l -0.15707392128509165 4.560531363725973" fill="#ff2d04" stroke="none" /><path d="M 101.08401301168833 79.027996857942 l 0.23651219362467604 -4.5757148801253065 a25.581823292307693,25.581823292307693 0 0,0 0.43956631922587625,0.02651584077925353 l -0.31524056169016423 4.570965769965749" fill="#ff2d04" stroke="none" /><path d="M 101.44485096284872 79.0497635885617 l 0.5555607209511219 -8.055591022265027 a29.074725656804734,29.074725656804734 0 0,0 0.49899125563385116,0.0387313251043541 l -0.6941421659473143 8.04483443497221" fill="#ff5e08" stroke="none" /><path d="M 103.95276090670814 79.375362276772 l 1.6846082443558201 -8.789915597080025 a29.949889448520707,29.949889448520707 0 0,0 0.5054879453953263,0.10139612646260872 l -1.8356625992182718 8.759615514540208" fill="#ff6a09" stroke="none" /><path d="M 104.307194497241 79.44645832069477 l 1.842969058905269 -8.794481277811649 a29.985512556213017,29.985512556213017 0 0,0 0.5042667585339224,0.11021318200078256 l -1.9940785415927194 8.761454597714996" fill="#ff6b09" stroke="none" /><path d="M 105.01212808612495 79.60689891045804 l 2.1645607563097564 -8.807058710266928 a30.069156873372783,30.069156873372783 0 0,0 0.5015694465465748,0.1278612198343087 l -2.315839091541356 8.76849449426375" fill="#ff6c09" stroke="none" /><path d="M 105.36241919743992 79.69619591428918 l 2.2944804299186137 -8.687623889942442 a29.98551330177515,29.98551330177515 0 0,0 0.4979053229066424,0.1360963332329226 l -2.443683642048967 8.646841015883226" fill="#ff6b09" stroke="none" /><path d="M 106.74666289553966 80.11325718540242 l 4.812522710220204 -14.185591144746832 a35.97969862721894,35.97969862721894 0 0,0 0.5847866014214167,0.20402056265001567 l -5.055991315704894 14.100649728924608" fill="#ffbb11" stroke="none" /><path d="M 107.4271985657038 80.35727306442388 l 2.6723520134650784 -7.067574727114809 a28.55592997633136,28.55592997633136 0 0,0 0.45827757814830133,0.17780458055218906 l -2.7936127566130464 7.020527442672073" fill="#ff5708" stroke="none" /><path d="M 108.76106565485865 80.91482961587045 l 6.257707578026941 -13.631836587649646 a35.9995290887574,35.9995290887574 0 0,0 0.5609443000378738,0.2633708703096649 l -6.491430089364412 13.522100734699979" fill="#ffbb11" stroke="none" /><path d="M 109.41281617654863 81.2277094730956 l 5.367549191451494 -10.704680825534206 a32.975006300591716,32.975006300591716 0 0,0 0.5052077356623853,0.2587870245811859 l -5.551017414702636 10.610701275640519" fill="#ff930d" stroke="none" /><line stroke="#e1ed5e" stroke-width="0.3" x1="143.23703022742887" x2="145.7803849466894" y1="26.81831364943548" y2="22.513508569990506" /><path d="M 143.74570117128098 25.957352633546492 a86.0,86.0 0 0,1 28.547481713284135,27.462654790039103" fill="none" id="id38" stroke="none" /><text fill="#e1ed5e" style="font-size:6.75px; font-family:Arial;" text-anchor="middle"><textPath startOffset="19.985693538727396" xlink:href="#id38">February</textPath></text><path d="M 114.68862486808459 84.99185889309783 l 5.257901566991152 -5.372274760387111 a28.517104827608858,28.517104827608858 0 0,0 0.347860063795667,0.34636624213216416 l -5.349597430954141 5.280972667604828" fill="#ff5608" stroke="none" /><path d="M 114.94478906791727 85.2469230424477 l 5.378257957062695 -5.309265535801352 a28.557377798043195,28.557377798043195 0 0,0 0.34232916793804236,0.3528002991435543 l -5.468851388703847 5.215901041107683" fill="#ff5708" stroke="none" /><path d="M 115.19652480421416 85.50635884689758 l 5.462126012944011 -5.209486733617078 a28.548084035635267,28.548084035635267 0 0,0 0.3360961556543991,0.3585239452253516 l -5.550989490568873 5.114693371513671" fill="#ff5708" stroke="none" /><path d="M 115.68641384162765 86.03803664274999 l 6.371391709667724 -5.670967149228092 a29.529624887745463,29.529624887745463 0 0,0 0.3346805232751186,0.38259769348180067 l -6.468064096520691 5.560453899543344" fill="#ff6409" stroke="none" /><path d="M 115.9244219780498 86.31012108654704 l 5.749596851833878 -4.942803249704863 a28.582161164464324,28.582161164464324 0 0,0 0.3175197544414393,0.3758432383726351 l -5.833827219762434 4.843101061703122" fill="#ff5708" stroke="none" /><path d="M 116.15771136456269 86.58626213691792 l 3.506255297352622 -2.9108076248274943 a25.557041500685198,25.557041500685198 0 0,0 0.2780867867129698,0.34090151915831723 l -3.5558405761420007 2.850021936061076" fill="#ff2d04" stroke="none" /><path d="M 116.38621287248628 86.86637796730983 l 3.560675165640495 -2.8538968809095624 a25.56323734229048,25.56323734229048 0 0,0 0.27224351040053646,0.3457216114473435 l -3.6092727566349954 2.79218287550918" fill="#ff2d04" stroke="none" /><path d="M 116.60985879189232 87.15038557335679 l 4.8876742468481025 -3.7811717909178366 a27.17953231690999,27.17953231690999 0 0,0 0.28308655481735523,0.3725087231066733 l -4.952036741889571 3.69647829193013" fill="#ff4406" stroke="none" /><path d="M 117.04232023915458 87.72973835380427 l 8.508592366401162 -6.126082194882233 a31.48451368047337,31.48451368047337 0 0,0 0.3128771750822284,0.4425425756388981 l -8.612782161287273 5.978713118911542" fill="#ff7f0b" stroke="none" /><path d="M 117.2510076193507 88.02491185347247 l 4.963764959051236 -3.4456841150894153 a27.042491339644968,27.042491339644968 0 0,0 0.2621518868627083,0.3846755461272219 l -5.022341311582678 3.3597305456917868" fill="#ff4206" stroke="none" /><line stroke="#e1ed5e" stroke-width="0.3" x1="172.23445277983987" x2="176.4835382374775" y1="55.19839476539836" y2="52.563006222186495" /><path d="M 173.08426987136738 54.67131705675599 a86.0,86.0 0 0,1 12.851231095245387,41.99856678651699" fill="none" id="id39" stroke="none" /><text fill="#e1ed5e" style="font-size:6.75px; font-family:Arial;" text-anchor="middle"><textPath startOffset="22.20632615414155" xlink:href="#id39">March</textPath></text><path d="M 118.21658344932153 89.55222093294921 l 4.161225626230762 -2.386592750059744 a25.797043221301777,25.797043221301777 0 0,0 0.21760709923344995,0.38709874828366825 l -4.201690366756646 2.3146104918412815" fill="#ff3004" stroke="none" /><path d="M 118.3937258080291 89.86733742301442 l 7.960226378996104 -4.385097873948895 a30.08813992899408,30.08813992899408 0 0,0 0.24599475882808566,0.4557909279793801 l -8.034529237042655 4.247425962637056" fill="#ff6c0a" stroke="none" /><path d="M 118.89224826269711 90.83032412892265 l 6.784638972440903 -3.293040585455477 a28.541580887573964,28.541580887573964 0 0,0 0.21072086911528948,0.4438318908783941 l -6.8403180353979485 3.1757662789365426" fill="#ff5708" stroke="none" /><path d="M 119.196687751892 91.48605970444005 l 7.236369329809536 -3.2094086868995038 a28.916144591715977,28.916144591715977 0 0,0 0.1978818387315195,0.456738566491889 l -7.290541878383736 3.084370975821012" fill="#ff5c08" stroke="none" /><path d="M 119.7369772167798 92.82701384747503 l 1.497096763634895 -0.5440880959934106 a22.592900052071005,22.592900052071005 0 0,0 0.12969069032614539,0.3666530458881934 l -1.50624053477085 0.5182374236786026" fill="#ff0100" stroke="none" /><path d="M 119.85752413597 93.16781622104841 l 9.955240960168958 -3.4252022224873553 a31.528002319526628,31.528002319526628 0 0,0 0.1721469556155635,0.5146974860124477 l -10.01272520955629 3.2533316335525937" fill="#ff800b" stroke="none" /><path d="M 120.37134235888165 94.90015583598534 l 5.072473360222373 -1.2698634781900544 a26.22900939408284,26.22900939408284 0 0,0 0.10587427039376493,0.4389172028583277 l -5.093580430876957 1.1823610436723206" fill="#ff3605" stroke="none" /><path d="M 120.53481517161879 95.60439243477599 l 13.194103320800012 -2.824281586591166 a34.49299555029586,34.49299555029586 0 0,0 0.11928122013635067,0.5816575912479466 l -13.240763836851361 2.5967483391798076" fill="#ffa70f" stroke="none" /><path d="M 120.73433829027371 96.67025291283417 l 31.896392769206436 -5.122272021778629 a53.30506991715976,53.30506991715976 0 0,0 0.13768980441961828,0.9072037763045248 l -31.979838467065353 4.572469133082023" fill="#77ff27" stroke="none" /><path d="M 120.78858239683441 97.02765380044208 l 5.920656413805708 -0.8465339413015172 a26.98086884023669,26.98086884023669 0 0,0 0.061778482034968524,0.46032144860075414 l -5.934350894898513 0.7444941506360986" fill="#ff4106" stroke="none" /><path d="M 120.87857604477298 97.74499172005257 l 6.001394332235804 -0.6481856751820672 a27.036296762130178,27.036296762130178 0 0,0 0.04599115386912115,0.46312464307022294 l -6.011662611787154 0.5447855014074092" fill="#ff4206" stroke="none" /><path d="M 120.98425023603335 99.18683210126433 l 32.42055933424429 -1.2563402462858706 a53.44489263905325,53.44489263905325 0 0,0 0.027710681944726565,0.9195826275312315 l -32.43738171064466 0.6980874713296399" fill="#75ff27" stroke="none" /><line stroke="#e1ed5e" stroke-width="0.3" x1="184.98032266829074" x2="189.97916517819016" y1="98.17113171792111" y2="98.06355123074" /><path d="M 185.9800911702706 98.14961562048488 a86.0,86.0 0 0,1 -9.607161424134198,41.387399972396054" fill="none" id="id40" stroke="none" /><text fill="#e1ed5e" style="font-size:6.75px; font-family:Arial;" text-anchor="middle"><textPath startOffset="21.466115282336823" xlink:href="#id40">April</textPath></text><path d="M 120.99824983174949 100.27111621757518 l 1.5612222108905567 0.020157520936388937 a22.561352336094675,22.561352336094675 0 0,0 -0.008356227819600237,0.38828107161009995 l -1.560643920385949 -0.047028408336603746" fill="#ff0100" stroke="none" /><path d="M 120.95626037817324 101.35467743843564 l 7.569072396510238 0.48928823274776573 a28.58487046153846,28.58487046153846 0 0,0 -0.035967173701331824,0.4907435091021229 l -7.559528664144569 -0.6195048783466588" fill="#ff5708" stroke="none" /><path d="M 120.89721153311464 102.0752229133903 l 8.976881633670121 0.8914601083242325 a30.021036802366865,30.021036802366865 0 0,0 -0.05549274072476678,0.5137938594096519 l -8.960206591444303 -1.0458502896186759" fill="#ff6b09" stroke="none" /><path d="M 120.70491114924044 103.5080841355445 l 11.840139361876277 2.0061039991257292 a33.0088864331361,33.0088864331361 0 0,0 -0.0997395846954368,0.5593925590823712 l -11.803853334841653 -2.209615308941319" fill="#ff940d" stroke="none" /><path d="M 120.5718875245553 104.21870165774334 l 14.69103660841988 3.0127085042600514 a35.996765289940825,35.996765289940825 0 0,0 -0.1297014213559035,0.6059218607482763 l -14.637001148339532 -3.265144184424497" fill="#ffbb11" stroke="none" /><path d="M 119.79798401119884 107.00284435728193 l 8.50157297651831 3.0071340755177562 a30.01773798816568,30.01773798816568 0 0,0 -0.17649820862096363,0.4856472671605731 l -8.44855050689212 -3.1530291396844605" fill="#ff6b09" stroke="none" /><path d="M 118.97047184881838 109.00673069616215 l 10.81082555052171 5.132723904429555 a32.96740589112426,32.96740589112426 0 0,0 -0.2477998884654689,0.5105411661413833 l -10.720872405441527 -5.318054026536213" fill="#ff930d" stroke="none" /><path d="M 118.81262510543309 109.33194174019688 l 8.086993573372581 4.011526964318473 a30.02728163076923,30.02728163076923 0 0,0 -0.23367134794298267,0.4610557378980282 l -8.016743555643329 -4.150136913919195" fill="#ff6b09" stroke="none" /><line stroke="#e1ed5e" stroke-width="0.3" x1="174.80103733775053" x2="179.2010983576182" y1="140.37084112569926" y2="142.7455964860345" /><path d="M 175.68104954172406 140.8457921977663 a86.0,86.0 0 0,1 -30.038265399797805,32.042727171017184" fill="none" id="id41" stroke="none" /><text fill="#e1ed5e" style="font-size:6.75px; font-family:Arial;" text-anchor="middle"><textPath startOffset="22.206326154141568" xlink:href="#id41">May</textPath></text><path d="M 118.12598468904814 110.60418214915192 l 1.3439508130064333 0.7862468972089504 a22.557044627218936,22.557044627218936 0 0,0 -0.1989521929852143,0.3334553191519786 l -1.3302177443229917 -0.8092643102470332" fill="#ff0100" stroke="none" /><path d="M 117.94076556474637 110.91462005526583 l 15.343825948660436 9.334720406404516 a38.96023384615385,38.96023384615385 0 0,0 -0.35349058069035005,0.569939369924062 l -15.180870728302123 -9.597456107693851" fill="#ffe115" stroke="none" /><path d="M 117.35343817320211 111.8261652097733 l 9.90860208051447 6.752596461433382 a32.99074452071006,32.99074452071006 0 0,0 -0.3238420070259475,0.46651856439907424 l -9.790899166326387 -6.922156288019476" fill="#ff930d" stroke="none" /><path d="M 116.93607887273984 112.41649034213515 l 4.859451272955009 3.5626504961452796 a27.025507881656804,27.025507881656804 0 0,0 -0.27828388529767967,0.372806740858832 l -4.797406120962237 -3.6457701165134266" fill="#ff4106" stroke="none" /><path d="M 116.27256486870786 113.27417163493432 l 16.254019536850027 13.259043477812575 a41.97606695857988,41.97606695857988 0 0,0 -0.4615448461653599,0.5559604997698859 l -16.023378690791123 -13.536865234696231" fill="#f8ff18" stroke="none" /><path d="M 115.80600337817218 113.82643327865902 l 1.1223197664974325 0.981758575999457 a22.49112426035503,22.49112426035503 0 0,0 -0.257406794163614,0.28919926199350987 l -1.1052541226854802 -1.0009320077338335" fill="#ff0000" stroke="none" /><path d="M 115.56566222782051 114.09645910891815 l 1.1052541226854802 1.0009320077338335 a22.49112426035503,22.49112426035503 0 0,0 -0.2623467464661202,0.28472557917726865 l -1.0878609682236378 -1.019808841712437" fill="#ff0000" stroke="none" /><path d="M 114.55890576462653 115.13401014063108 l 22.17416385732737 23.050085363707005 a52.98437084023669,52.98437084023669 0 0,0 -0.6627188360513712,0.6266420243106758 l -21.774109186885187 -23.4283620247636" fill="#7aff26" stroke="none" /><path d="M 113.48314897796784 116.09983520530334 l 1.9147667187646629 2.286367129747219 a23.98224852071006,23.98224852071006 0 0,0 -0.31876961651405095,0.26232569266606254 l -1.8751269737059209 -2.31898794127046" fill="#ff1602" stroke="none" /><path d="M 112.34349029814194 116.9893568818739 l 7.202965612388308 9.914031642666838 a33.25441704142012,33.25441704142012 0 0,0 -0.4659936268383947,0.33247407985102545 l -7.031244657701029 -10.036549984362084" fill="#ff970d" stroke="none" /><path d="M 112.04921762599082 117.19931262002967 l 2.5666972457731925 3.6637589013080953 a25.473372781065088,25.473372781065088 0 0,0 -0.3612889861083368,0.24849785905417573 l -2.5032513750419723 -3.7073975497273652" fill="#ff2b04" stroke="none" /><path d="M 111.7513745106137 117.40417183066458 l 8.344171250139908 12.35799183242455 a35.91124260355029,35.91124260355029 0 0,0 -0.5152840950541441,0.341502200618988 l -8.130212456345799 -12.499792054134858" fill="#ffba11" stroke="none" /><path d="M 111.45004920935366 117.60387380957326 l 14.634382421422442 22.49962569744275 a47.84023668639053,47.84023668639053 0 0,0 -0.6941805101297738,0.44305884557889696 l -14.244920109245738 -22.748198971845454" fill="#b3ff20" stroke="none" /><path d="M 111.1453310114006 117.79835938074945 l 0.7913844505136519 1.2637888317691917 a22.49112426035503,22.49112426035503 0 0,0 -0.3298920994807818,0.20264667162167785 l -0.7695131511005614 -1.2772239702192476" fill="#ff0000" stroke="none" /><line stroke="#e1ed5e" stroke-width="0.3" x1="143.8653032363475" x2="146.44561519142675" y1="172.8068346515853" y2="177.08958963109032" /><path d="M 144.38136562736335 173.6633856474863 a86.0,86.0 0 0,1 -40.68145358897372,12.25698825130547" fill="none" id="id42" stroke="none" /><text fill="#e1ed5e" style="font-size:6.75px; font-family:Arial;" text-anchor="middle"><textPath startOffset="21.466115282336833" xlink:href="#id42">June</textPath></text><path d="M 110.5260780823613 118.17145234162733 l 15.695690395000268 27.095893432485717 a52.31360946745562,52.31360946745562 0 0,0 -0.7830879829951194,0.44465779408557055 l -15.22695364508395 -27.362054392365916" fill="#81ff25" stroke="none" /><path d="M 109.57404056367764 118.69057910512821 l 2.060888710353865 4.023296455821403 a25.52041775147929,25.52041775147929 0 0,0 -0.39270587003304974,0.196910875674703 l -1.9913289326380548 -4.058175172405408" fill="#ff2c04" stroke="none" /><path d="M 108.92500713936063 119.00905698771935 l 5.10777419235905 10.878867566923983 a33.0182826035503,33.0182826035503 0 0,0 -0.5165505980981965,0.237123044379947 l -4.919755598493434 -10.965177681638005" fill="#ff940d" stroke="none" /><path d="M 108.2653958097858 119.30500536409082 l 4.71014737037757 11.001217890030325 a32.96713346272189,32.96713346272189 0 0,0 -0.5235942813511449,0.21886245206953214 l -4.520081629528963 -11.08066538511983" fill="#ff930d" stroke="none" /><path d="M 106.2309692047433 120.05430185196036 l 4.440202665763381 14.290740592219992 a35.964647218934914,35.964647218934914 0 0,0 -0.5927744970429233,0.1785980933556867 l -4.193553194280212 -14.365054054681405" fill="#ffbb11" stroke="none" /><path d="M 105.88484417918355 120.15858648285463 l 3.3700510681483444 11.544140140398794 a33.025989181065086,33.025989181065086 0 0,0 -0.5470815370765257,0.15461070702759638 l -3.170838362967213 -11.60043964076491" fill="#ff940d" stroke="none" /><path d="M 104.48393922423573 120.51570834832081 l 1.2937054975911844 5.919189210626257 a27.05891696804734,27.05891696804734 0 0,0 -0.4558893270366016,0.09553604100942018 l -1.1916247091252046 -5.940581232362219" fill="#ff4206" stroke="none" /><path d="M 103.7750983002368 120.6578951692458 l 2.163169282527005 11.837181635501347 a33.03321114319527,33.03321114319527 0 0,0 -0.560229148772854,0.09740301857154235 l -1.9590911622821006 -11.872663232593895" fill="#ff940d" stroke="none" /><path d="M 103.06178313531738 120.77559828337769 l 2.4030928520571635 16.30608358773288 a37.482209112426034,37.482209112426034 0 0,0 -0.6391098772531529,0.08857480540482253 l -2.12205438361718 -16.345032958630306" fill="#ffce13" stroke="none" /><path d="M 102.34483914955558 120.86867818915974 l 0.8409787254550188 7.484570695937391 a28.531669384615384,28.531669384615384 0 0,0 -0.4885265845301703,0.05063777795124373 l -0.712019544319246 -7.497937842344394" fill="#ff5708" stroke="none" /><path d="M 101.26447882468166 120.96189622390904 l 0.45300212775684084 7.50964223828697 a28.52329299408284,28.52329299408284 0 0,0 -0.49034519519057673,0.02534524566894851 l -0.32366886415278456 -7.51632729071812" fill="#ff5608" stroke="none" /><path d="M 100.90346689309514 120.98055641714683 l 0.3849089722062144 8.938461905530009 a29.946745562130175,29.946745562130175 0 0,0 -0.515197605008336,0.01774444721486034 l -0.2309910155232261 -8.943763151170963" fill="#ff6a09" stroke="none" /><line stroke="#e1ed5e" stroke-width="0.3" x1="102.19456741930631" x2="102.32365962044197" y1="184.97166512339345" y2="189.96999836594603" /><path d="M 102.22038585953345 185.97133177190398 a86.0,86.0 0 0,1 -42.740103519485714,-10.115201625700543" fill="none" id="id43" stroke="none" /><text fill="#e1ed5e" style="font-size:6.75px; font-family:Arial;" text-anchor="middle"><textPath startOffset="22.20632615414155" xlink:href="#id43">July</textPath></text><path d="M 100.18074693466247 120.99922214144158 l 0.07700461121714383 8.946414166768006 a29.946745562130175,29.946745562130175 0 0,0 -0.5155030917591924,0.0 l 0.07700461121713767 -8.946414166768006" fill="#ff6a09" stroke="none" /><path d="M 98.37488393609728 120.93702456842531 l -0.807749996259339 10.406568424542758 a31.437869822485204,31.437869822485204 0 0,0 -0.5391679740318932,-0.04652168149998909 l 0.9867622880327739 -10.391122490764106" fill="#ff7f0b" stroke="none" /><path d="M 97.2962882734958 120.8252237178851 l -0.9598976543801869 7.393570550728432 a28.455621301775146,28.455621301775146 0 0,0 -0.485197352770507,-0.06724393196564186 l 1.087023598337525 -7.375952053270185" fill="#ff5607" stroke="none" /><path d="M 96.93821686468263 120.77559828337769 l -1.30442831800503 8.851142463924223 a29.946745562130175,29.946745562130175 0 0,0 -0.5093287388777951,-0.07954667413815095 l 1.4565929204913421 -8.827377482438965" fill="#ff6a09" stroke="none" /><path d="M 95.51606077576429 120.51570834832081 l -2.5470897368439553 11.653893499637856 a32.928994082840234,32.928994082840234 0 0,0 -0.5527050911887065,-0.12579387930126043 l 2.7473149774255243 -11.60832288675891" fill="#ff930d" stroke="none" /><path d="M 94.46302465271185 120.25689768951611 l -3.256018680604475 11.91206988495295 a33.34905124260355,33.34905124260355 0 0,0 -0.5524331190754225,-0.1561231175559923 l 3.4605829677845112 -11.854257974058436" fill="#ff980e" stroke="none" /><path d="M 93.76903079525671 120.05430185196036 l -2.212178415885192 7.119870479985925 a28.455621301775146,28.455621301775146 0 0,0 -0.46650776316079673,-0.14936105393448043 l 2.3344075241369286 -7.080736579391738" fill="#ff5607" stroke="none" /><path d="M 93.08242187328487 119.8279376855182 l -3.274291769774466 9.385142023126264 a30.939913349112423,30.939913349112423 0 0,0 -0.5013451099292457,-0.17976451941599245 l 3.4353564403334382 -9.327389962670313" fill="#ff780b" stroke="none" /><path d="M 92.7421414339146 119.70592522655815 l -2.590326492703546 7.033035944804892 a28.4948906556213,28.4948906556213 0 0,0 -0.4588081469926241,-0.17348198254006328 l 2.711004860456453 -6.987405712158195" fill="#ff5608" stroke="none" /><path d="M 91.7346041902142 119.30500536409082 l -5.868920101623049 13.707696116514189 a35.91124260355029,35.91124260355029 0 0,0 -0.5661652368278827,-0.24819020176274145 l 6.104006013108674 -13.604641361456995" fill="#ffba11" stroke="none" /><path d="M 91.40352486487194 119.15986991738527 l -3.0708289818999672 6.844280115615504 a28.501610556213016,28.501610556213016 0 0,0 -0.44589005904233986,-0.20468625657998843 l 3.1881870367097265 -6.790406788701441" fill="#ff5608" stroke="none" /><path d="M 91.07499286063937 119.00905698771935 l -3.1686415879386853 6.748777628776098 a28.455621301775146,28.455621301775146 0 0,0 -0.4415869764967134,-0.21198858391479417 l 3.284341232435641 -6.693234768361742" fill="#ff5607" stroke="none" /><path d="M 90.42595943632237 118.69057910512821 l -0.6798135311487074 1.3271417116067366 a22.49112426035503,22.49112426035503 0 0,0 -0.3430529387142266,-0.17946908385210805 l 0.7025573723894295 -1.3152432088099117" fill="#ff0000" stroke="none" /><line stroke="#e1ed5e" stroke-width="0.3" x1="58.666819895761336" x2="56.23545636021788" y1="174.27360380694188" y2="178.64263932499728" /><path d="M 58.180547188652646 175.14741091055294 a86.0,86.0 0 0,1 -31.652253787137756,-30.449443065178592" fill="none" id="id44" stroke="none" /><text fill="#e1ed5e" style="font-size:6.75px; font-family:Arial;" text-anchor="middle"><textPath startOffset="22.20632615414155" xlink:href="#id44">August</textPath></text><path d="M 88.8546689885994 117.79835938074946 l -4.000319401681076 6.388246547013687 a28.537390082840236,28.537390082840236 0 0,0 -0.41408867049176545,-0.2642909814351947 l 4.1096898742197645 -6.318441136754688" fill="#ff5708" stroke="none" /><path d="M 88.54995079064634 117.60387380957326 l -4.0651062281729 6.249896027067428 a28.455621301775146,28.455621301775146 0 0,0 -0.40830469815709314,-0.27060208976383476 l 4.172085625069956 -6.1789959162122745" fill="#ff5607" stroke="none" /><path d="M 87.65650970185807 116.9893568818739 l -4.5918774309848 6.3201770770271 a28.81216849704142,28.81216849704142 0 0,0 -0.39872615238442866,-0.2949680753379721 l 4.699988553787794 -6.240199052949362" fill="#ff5b08" stroke="none" /><path d="M 85.70375840098266 115.38237550388516 l -5.075588733378935 5.461198403746209 a28.455621301775146,28.455621301775146 0 0,0 -0.35591771552960305,-0.336542415296934 l 5.168842283299355 -5.373021351703344" fill="#ff5607" stroke="none" /><path d="M 85.18274418774928 114.88116024355367 l -5.260564193698481 5.283252157474671 a28.455621301775146,28.455621301775146 0 0,0 -0.3441224666407271,-0.3485942418841881 l 5.350727285394742 -5.191917421609818" fill="#ff5607" stroke="none" /><path d="M 84.67929136418377 114.36230785411682 l -5.484386234785765 5.141305494886287 a28.517414087573965,28.517414087573965 0 0,0 -0.3326401435916402,-0.3610151786424767 l 5.572072786373134 -5.0461390614424655" fill="#ff5608" stroke="none" /><path d="M 83.95833913139862 113.55231037782056 l -5.733364392241475 4.843658919687375 a28.50549791715976,28.50549791715976 0 0,0 -0.3134301663856503,-0.37754682647738647 l 5.815890558520661 -4.744250836096227" fill="#ff5608" stroke="none" /><path d="M 83.06392112726016 112.41649034213515 l -6.049671555281108 4.435246729993867 a28.50132918106509,28.50132918106509 0 0,0 -0.28666936510455837,-0.39815867531901566 l 6.125120712761274 -4.330454449223713" fill="#ff5608" stroke="none" /><path d="M 82.6465618267979 111.8261652097733 l -6.1609839668173105 4.198638536014187 a28.455621301775146,28.455621301775146 0 0,0 -0.2723567388221464,-0.4071363706915208 l 6.232343811050187 -4.091965251116846" fill="#ff5607" stroke="none" /><path d="M 82.24976979558568 111.22182372390057 l -7.609969103876506 4.811077425170185 a30.003226963313608,30.003226963313608 0 0,0 -0.27222265050376476,-0.43890959019097925 l 7.691656394048227 -4.679371503613942" fill="#ff6b09" stroke="none" /><line stroke="#e1ed5e" stroke-width="0.3" x1="26.63291911575756" x2="22.317208475507996" y1="142.92168965132927" y2="145.44649492493687" /><path d="M 25.769776987707644 143.4266507060508 a86.0,86.0 0 0,1 -11.730757126820373,-40.83630448921669" fill="none" id="id45" stroke="none" /><text fill="#e1ed5e" style="font-size:6.75px; font-family:Arial;" text-anchor="middle"><textPath startOffset="21.46611528233685" xlink:href="#id45">September</textPath></text><path d="M 80.87730276802145 108.67885076344099 l -13.578246555251031 6.1624975835083955 a35.91124260355029,35.91124260355029 0 0,0 -0.2506244172346752,-0.5650918979503603 l 13.682312057216986 -5.92785734906534" fill="#ffba11" stroke="none" /><path d="M 80.58989483394504 108.01547362559985 l -6.891161597415958 2.8457302812780516 a28.455621301775146,28.455621301775146 0 0,0 -0.18306095464531474,-0.4543422767100448 l 6.939125166318661 -2.7266886367252017" fill="#ff5607" stroke="none" /><path d="M 80.45479744820244 107.68017299344265 l -3.895583511185307 1.5307467495932543 a25.18554136331361,25.18554136331361 0 0,0 -0.15507783665765437,-0.4048592962287322 l 3.921355627436471 -1.4634638865313643" fill="#ff2703" stroke="none" /><path d="M 80.20201598880116 107.00284435728193 l -7.0288700631475125 2.4862169315793823 a28.455621301775146,28.455621301775146 0 0,0 -0.15936390363314012,-0.4631861005476391 l 7.070624797723881 -2.3648581279424463" fill="#ff5607" stroke="none" /><path d="M 79.86692584326677 105.97154293290107 l -1.4295673957443706 0.42401488280954375 a22.49112426035503,22.49112426035503 0 0,0 -0.10689427647109565,-0.3721129996075037 l 1.4366543091015704 -0.39934440769744406" fill="#ff0000" stroke="none" /><path d="M 79.4281124754447 104.21870165774334 l -17.882889606451236 3.6672656282961986 a39.25504253254438,39.25504253254438 0 0,0 -0.13004647333486555,-0.663104165799224 l 17.943366012761768 -3.3588977354290197" fill="#ffe415" stroke="none" /><path d="M 79.29508885075956 103.50808413554451 l -7.350856029316129 1.2454736575897662 a28.455621301775146,28.455621301775146 0 0,0 -0.07766791864653501,-0.48363820355179915 l 7.371205702323955 -1.1187562243447535" fill="#ff5607" stroke="none" /><path d="M 79.23777060512086 103.15116336523772 l -7.371205702323955 1.1187562243447535 a28.455621301775146,28.455621301775146 0 0,0 -0.06933137465798121,-0.4849034728786287 l 7.389371127998535 -0.9917072794857241" fill="#ff5607" stroke="none" /><path d="M 79.18660465613746 102.79330883721812 l -7.464888431902768 1.0018422502040305 a28.531815663905327,28.531815663905327 0 0,0 -0.06113755444394656,-0.48732646269463115 l 7.481027495593563 -0.8731980332219906" fill="#ff5708" stroke="none" /><path d="M 79.1416061653843 102.43462659150553 l -7.405346923532199 0.8643644703569935 a28.455621301775146,28.455621301775146 0 0,0 -0.052599129918693005,-0.4870026170910349 l 7.419128354951943 -0.7367655313811765" fill="#ff5607" stroke="none" /><path d="M 79.04373962182676 101.35467743843564 l -14.880184883909987 0.9619011397176148 a35.91124260355029,35.91124260355029 0 0,0 -0.03456653605623289,-0.6172087217695771 l 14.89453777085375 -0.7056207016126002" fill="#ffba11" stroke="none" /><path d="M 79.0235259727143 100.99374915477108 l -7.51451772346228 0.35599622827408095 a28.522945562130175,28.522945562130175 0 0,0 -0.01901240012719658,-0.4906255675820269 l 7.5195322564406775 -0.22659341367805724" fill="#ff5608" stroke="none" /><path d="M 79.0095281055655 100.63252640178507 l -7.45223854240278 0.22456558643257116 a28.455621301775146,28.455621301775146 0 0,0 -0.010539335178303506,-0.4897214922133757 l 7.454999940266092 -0.09625427842906661" fill="#ff5607" stroke="none" /><line stroke="#e1ed5e" stroke-width="0.3" x1="15.007084014347285" x2="10.007500721073583" y1="101.09737516637583" y2="101.16192664675087" /><path d="M 14.007167355692545 101.11028546245083 a86.0,86.0 0 0,1 10.666146001902534,-42.60595125391555" fill="none" id="id46" stroke="none" /><text fill="#e1ed5e" style="font-size:6.75px; font-family:Arial;" text-anchor="middle"><textPath startOffset="22.20632615414155" xlink:href="#id46">October</textPath></text><path d="M 79.12142395522702 97.74499172005258 l -7.412512205244847 -0.8005946556026357 a28.455621301775146,28.455621301775146 0 0,0 0.05678881161052153,-0.48653185753613404 l 7.397633040630737 0.9280702514636314" fill="#ff5607" stroke="none" /><path d="M 79.26566170972629 96.67025291283419 l -7.361303535008418 -1.1821587291712936 a28.455621301775146,28.455621301775146 0 0,0 0.08182771427141376,-0.4829518016312153 l 7.339863959216781 1.308696319118337" fill="#ff5607" stroke="none" /><path d="M 79.32604984820605 96.31383870115002 l -7.339863959216781 -1.308696319118337 a28.455621301775146,28.455621301775146 0 0,0 0.09012881198012833,-0.48147171752112927 l 7.316249423326791 1.4348461141020388" fill="#ff5607" stroke="none" /><path d="M 79.3925641242962 95.95851677861259 l -7.316249423326791 -1.4348461141020388 a28.455621301775146,28.455621301775146 0 0,0 0.09840320257672333,-0.4798489629501824 l 7.290466924835074 1.5605707332156238" fill="#ff5607" stroke="none" /><path d="M 79.54389044137918 95.25157060432595 l -7.262524103652365 -1.6858329215410819 a28.455621301775146,28.455621301775146 0 0,0 0.11486206355191371,-0.4761774079881546 l 7.232429239839636 1.8105955611886333" fill="#ff5607" stroke="none" /><path d="M 79.71946130924805 94.55025226153421 l -8.640229501385447 -2.3217860187546546 a29.946745562130175,29.946745562130175 0 0,0 0.1380591023284441,-0.4966720466037564 l 8.598983628490641 2.470169368777354" fill="#ff6a09" stroke="none" /><path d="M 80.02781315780177 93.51064311812611 l -29.939434550810052 -9.727911979634175 a52.48018444523076,52.48018444523076 0 0,0 0.2865485700879378,-0.8567437519725083 l 29.76754868695034 10.241828834529006" fill="#80ff26" stroke="none" /><path d="M 80.95270993114464 91.15688171328213 l -28.650250724070357 -13.301501430450152 a52.58744698224852,52.58744698224852 0 0,0 0.38825013149423543,-0.817753793054984 l 28.41704239873437 13.792697639145667" fill="#7eff26" stroke="none" /><path d="M 81.6062741919709 89.86733742301443 l -7.892516135654168 -4.3477979241752545 a30.010835573964496,30.010835573964496 0 0,0 0.2531519143027191,-0.450329008094857 l 7.816506580059019 4.483010442204896" fill="#ff6b09" stroke="none" /><line stroke="#e1ed5e" stroke-width="0.3" x1="26.266209847984243" x2="21.928928074336255" y1="57.711370442889674" y2="55.22380399835377" /><path d="M 25.398753493254645 57.213857153982495 a86.0,86.0 0 0,1 29.58750427330803,-30.492523968695096" fill="none" id="id47" stroke="none" /><text fill="#e1ed5e" style="font-size:6.75px; font-family:Arial;" text-anchor="middle"><textPath startOffset="21.46611528233685" xlink:href="#id47">November</textPath></text><path d="M 81.96595687620814 89.24020034530311 l -6.40261886051782 -3.8200472146852866 a28.455621301775146,28.455621301775146 0 0,0 0.25458865202636877,-0.41847680435254403 l 6.335914410205235 3.9296917922449053" fill="#ff5607" stroke="none" /><path d="M 82.7489923806493 88.02491185347247 l -7.389041329590703 -5.1292320537224345 a29.994829249704143,29.994829249704143 0 0,0 0.2980734445500363,-0.42160374864693695 l 7.2996552652367885 5.2556623027011575" fill="#ff6b09" stroke="none" /><path d="M 83.6137871275137 86.86637796730984 l -49.15863861745889 -39.40086609807048 a84.0,84.0 0 0,0 0.9140060316944298,-1.1204633215676711 l 48.47313409368807 40.241213589246236" fill="#4dd2ff" stroke="none" /><path d="M 85.31137513191541 84.99185889309783 l -22.460407575166563 -22.94898053656885 a53.11114473372781,53.11114473372781 0 0,0 0.6588734835267461,-0.6338357691279461 l 22.06205084802739 23.33219939245911" fill="#79ff26" stroke="none" /><path d="M 86.93701828274178 83.55741782278169 l -4.668169523048445 -5.875898983958805 a28.504531668639054,28.504531668639054 0 0,0 0.38680302647568116,-0.3019058975322088 l 4.566333941413339 5.955383270714235" fill="#ff5608" stroke="none" /><path d="M 88.39885842347998 82.49532879139004 l -5.780109614601177 -8.721462253171579 a31.462961865088758,31.462961865088758 0 0,0 0.4540149957911142,-0.2953039825112627 l 5.629127593025775 8.819665159842376" fill="#ff7f0b" stroke="none" /><path d="M 88.70189139769569 82.29822771554957 l -6.441507917091453 -10.092495153886306 a32.97294795266272,32.97294795266272 0 0,0 0.4810609401201307,-0.3012403165706117 l 6.26682782459908 10.201879811779849" fill="#ff930d" stroke="none" /><line stroke="#e1ed5e" stroke-width="0.3" x1="56.762969772571076" x2="54.21961505331055" y1="26.818313649435495" y2="22.513508569990535" /><path d="M 56.25429882871897 25.957352633546506 a86.0,86.0 0 0,1 42.265352541879196,-11.944610805530505" fill="none" id="id48" stroke="none" /><text fill="#e1ed5e" style="font-size:6.75px; font-family:Arial;" text-anchor="middle"><textPath startOffset="22.20632615414155" xlink:href="#id48">December</textPath></text><path d="M 91.90106846888425 80.62456947434976 l -2.885828688681557 -6.903895044878194 a28.482765131360946,28.482765131360946 0 0,0 0.4539829013424828,-0.18519102428939702 l 2.766561917750694 6.952546955351168" fill="#ff5608" stroke="none" /><path d="M 92.91201910852362 80.23233633223022 l -2.5345755521420803 -7.068675525853523 a28.509343973964498,28.509343973964498 0 0,0 0.4633691500316198,-0.16166039795427115 l 2.412524398047175 7.111256776980004" fill="#ff5608" stroke="none" /><path d="M 93.25333710446033 80.11325718540243 l -2.415544683412205 -7.120159495140231 a28.51874506508876,28.51874506508876 0 0,0 0.4662369080444995,-0.1537109782246547 l 2.2926249531252965 7.16068419762412" fill="#ff5608" stroke="none" /><path d="M 93.59665428221793 80.00007090966166 l -2.2865838624828907 -7.141815720143526 a28.498933093491125,28.498933093491125 0 0,0 0.46848802695292463,-0.14556151045713314 l 2.1633104628192372 7.180117365483185" fill="#ff5608" stroke="none" /><path d="M 94.28887869178378 79.79150937346287 l -2.032252976085917 -7.191016089765314 a28.472667834319527,28.472667834319527 0 0,0 0.4727847320599543,-0.12922992681870715 l 1.9081703548022402 7.224932557410317" fill="#ff5607" stroke="none" /><path d="M 96.40284397218896 79.31037775812273 l -1.290449219391297 -7.422226521482958 a28.533571910059173,28.533571910059173 0 0,0 0.48462341642161894,-0.07996701612323179 l 1.1624965968307925 7.443339800545817" fill="#ff5708" stroke="none" /><path d="M 98.55514903715128 79.0497635885617 l -0.722109867838056 -10.470541831118798 a31.495412755029584,31.495412755029584 0 0,0 0.5411781052131086,-0.032645341199751925 l 0.5417697137853245 10.481420441698855" fill="#ff7f0b" stroke="none" /><path d="M 98.91598698831166 79.02799685794201 l -0.7723031587224599 -14.94146665834066 a35.9614129704142,35.9614129704142 0 0,0 0.6184663797380265,-0.026632463290111187 l 0.5149959465951093 14.952546848154963" fill="#ffbb11" stroke="none" /><path d="M 99.27714615592234 79.0124445844662 l -0.25963430153648015 -7.538300219213957 a28.5427700591716,28.5427700591716 0 0,0 0.49117127891150963,-0.012685505037861061 l 0.1298363874300915 7.541652516394177" fill="#ff5708" stroke="none" /></svg>